<svg width="67" height="50" viewBox="0 0 67 50" fill="none" xmlns="http://www.w3.org/2000/svg">
<g clip-path="url(#clip0_12_183)">
<path d="M52.7034 36.7682C52.0967 40.8056 51.4996 44.7955 50.9025 48.7855C50.7532 49.7818 50.5028 49.9953 49.4675 50C48.3359 50 47.2043 50.0095 46.0776 50C45.1675 49.9905 44.8063 49.5683 44.893 48.6858C45.2445 45.0138 45.5912 41.3417 45.9524 37.6696C45.9909 37.2569 45.8416 37.0386 45.5334 36.7492C44.4404 35.7387 43.4291 34.6428 42.3601 33.6038C42.1531 33.4045 41.8353 33.1863 41.5704 33.1863C38.296 33.2147 35.0265 33.2859 31.7521 33.3428C31.6124 33.3428 31.4728 33.3523 31.3331 33.3618C31.3235 33.4235 31.2994 33.4899 31.3187 33.5041C32.6621 34.5811 32.0602 36.0044 31.9013 37.2663C31.4198 41.1329 30.8179 44.9805 30.2545 48.8377C30.1197 49.7486 29.8308 49.9953 28.911 50C27.7554 50.0047 26.6045 50.0095 25.4488 50C24.558 49.9905 24.2161 49.6584 24.2113 48.7712C24.2017 46.1049 24.2113 43.4387 24.2113 40.7676C24.1054 40.7581 23.9994 40.7534 23.8935 40.7439C23.6672 41.8351 23.4312 42.931 23.2097 44.0222C22.8727 45.6827 22.5356 47.3385 22.2081 48.999C22.0781 49.6679 21.7122 50.0142 20.9995 50C20.0316 49.9858 19.0686 50.0095 18.1007 49.9905C17.2965 49.9763 16.9065 49.5967 16.9884 48.8139C17.388 45.1039 17.2484 41.3939 16.9691 37.6886C16.8198 35.7245 16.5839 33.7651 16.3672 31.8057C16.3383 31.5637 16.242 31.2933 16.0831 31.1083C14.6048 29.3956 13.1121 27.7019 11.6145 26.0082C11.5134 25.8943 11.3545 25.7899 11.2052 25.7567C8.58086 25.1827 7.26629 23.2992 6.54881 20.9935C5.918 18.9629 5.54723 16.8564 5.0657 14.7879C4.2808 14.4796 3.32256 14.2471 2.52322 13.7584C1.72388 13.2698 1.01603 12.5818 0.38523 11.8797C-0.264834 11.1491 -0.0914837 10.5513 0.79453 10.0816C2.15726 9.35573 3.63555 9.14698 5.162 9.16596C5.39795 9.16596 5.63872 9.08056 5.87467 9.03786C5.77354 8.81962 5.70131 8.58241 5.56167 8.39264C4.00633 6.25771 3.29367 3.88557 3.40924 1.26673C3.43331 0.725877 3.55369 0.246704 4.16042 0.0616774C4.74307 -0.113861 5.08977 0.222983 5.40277 0.630991C6.69327 2.30572 8.18601 3.78594 9.92433 5.00522C10.2084 5.20448 10.637 5.2709 10.9981 5.28039C12.7605 5.3136 14.5181 5.3136 16.2805 5.30411C16.5598 5.30411 16.8921 5.25667 17.1087 5.10485C18.8711 3.87608 20.3831 2.39112 21.7074 0.711644C21.9144 0.450709 22.1937 0.180284 22.4971 0.0664217C23.1327 -0.166048 23.6864 0.346334 23.7346 1.18133C23.879 3.80017 23.1905 6.1818 21.6399 8.32148C21.4907 8.52548 21.3462 8.72948 21.1632 8.99042C21.351 9.05684 21.4714 9.14698 21.5822 9.13275C26.4841 8.48278 31.4054 8.72948 36.3266 8.67255C40.227 8.62511 44.1274 8.23608 48.0229 7.98937C50.5365 7.83281 53.0549 7.56239 55.5396 8.19812C57.4994 8.69627 58.9248 9.85388 59.8108 11.6614C59.9071 11.856 60.0515 12.0979 60.2297 12.1691C61.8958 12.8191 62.8011 14.1427 63.4704 15.6704C64.3853 17.7579 64.7609 19.9782 65.0209 22.2127C65.1654 23.4557 65.228 24.7082 65.3387 25.956C65.3532 26.1268 65.3821 26.3735 65.4976 26.4541C66.923 27.4552 67.0385 28.9449 66.9856 30.4441C66.9278 32.0097 66.3355 33.4282 65.358 34.6712C64.7513 35.4445 64.106 35.4493 63.5137 34.6712C62.074 32.7877 61.5058 30.686 62.098 28.3803C62.2569 27.7635 62.7529 27.2369 63.09 26.6676C63.1863 26.5016 63.3548 26.3213 63.3452 26.1552C63.1863 23.0477 62.9359 19.945 61.8621 16.9845C61.6069 16.2824 61.2024 15.6372 60.8364 14.9113C60.716 15.0584 60.6631 15.0916 60.6631 15.12C60.8172 17.6677 60.4271 20.1585 59.9456 22.6492C59.5556 24.675 59.6952 26.7293 59.9938 28.7504C60.4608 31.91 60.3019 35.046 59.8686 38.182C59.3967 41.6263 58.8766 45.0707 58.3758 48.5103C58.1784 49.8577 58.005 50.0047 56.6182 50.0095C55.6311 50.0095 54.6391 50.0095 53.652 50.0095C52.5638 50.0047 52.2267 49.6821 52.323 48.6336C52.5638 45.9294 52.8286 43.2299 53.0838 40.5257C53.1705 39.6005 53.2042 38.6707 53.3535 37.755C53.4546 37.1572 53.2331 36.8963 52.6938 36.7777L52.7034 36.7682ZM56.6519 10.798C55.7804 11.4859 54.8799 12.0695 54.1432 12.8048C52.1448 14.8022 50.2187 16.8754 48.2444 18.8965C47.6281 19.5275 47.0262 20.2344 46.275 20.6661C41.4163 23.432 35.6958 20.5333 35.0457 15.0584C34.8964 13.8011 34.5353 12.5676 34.2512 11.3246C34.126 10.779 33.7986 10.556 33.187 10.5703C31.4198 10.6177 29.6526 10.594 27.8902 10.6035C27.6398 10.6035 27.3894 10.6319 27.1005 10.6509C27.2786 11.5523 26.7008 12.0457 26.2145 12.5676C25.0732 13.7964 23.6142 14.4463 21.9529 14.7025C21.847 15.4474 21.7603 16.159 21.6448 16.8659C21.2836 19.0483 20.8165 21.1975 19.632 23.1189C18.7411 24.5612 17.4747 25.4863 15.7653 25.7804C15.356 25.8516 14.9467 25.9038 14.4459 25.975C14.6385 26.1979 14.7685 26.3497 14.8985 26.5063C15.7701 27.569 16.6272 28.646 17.518 29.6945C18.0429 30.3112 18.5678 30.947 19.1793 31.4736C20.8213 32.8874 22.6752 33.988 24.6976 34.7993C25.3718 35.0697 25.6992 35.4825 25.7281 36.2036C25.8629 39.9137 26.0267 43.6237 26.1759 47.3337C26.1856 47.5567 26.1759 47.7797 26.1759 47.9932H28.3958C28.6992 45.9721 29.017 44.0032 29.2866 42.0296C29.5611 40.0323 29.7778 38.0254 30.0523 36.0233C30.1245 35.4872 30.0763 35.0555 29.6911 34.6238C29.3107 34.1921 29.0122 33.6797 28.7232 33.1768C28.208 32.2848 28.261 31.9907 29.017 31.2885C28.9062 31.2031 28.8099 31.113 28.6992 31.0324C27.5098 30.1879 26.3493 29.3149 25.6077 28.0245C24.7602 26.549 24.8999 25.1874 26.0411 23.9254C28.5162 21.1737 35.142 19.9592 37.7519 24.9597C37.9782 25.3914 38.2431 25.8089 38.4453 26.2501C39.1291 27.7493 39.8032 29.2532 40.4629 30.7667C40.6218 31.1367 40.8096 31.298 41.2526 31.2411C42.1868 31.1225 43.1354 31.1272 44.0648 30.9944C45.7597 30.7572 47.4788 30.6196 49.0052 29.704C49.6361 29.3244 50.3102 29.7799 50.4306 30.539C50.4932 30.9232 50.551 31.3218 50.7099 31.6728C51.4514 33.2954 52.6456 34.5099 54.2539 35.3212C55.4915 35.9474 55.5203 35.9996 55.3855 37.3517C55.111 40.0987 54.851 42.8456 54.591 45.5973C54.514 46.3943 54.461 47.1914 54.3984 48.0169H56.4256C56.4738 47.8224 56.5267 47.6468 56.5508 47.4666C56.9649 44.6911 57.3983 41.9157 57.7787 39.1356C58.2458 35.6818 58.5636 32.2279 58.0195 28.7361C57.5861 25.9655 57.7883 23.2043 58.3036 20.4336C58.6358 18.6498 58.6792 16.79 58.6503 14.9682C58.6214 13.3884 58.0725 11.9271 56.6568 10.7885L56.6519 10.798ZM7.00144 13.6967C7.36741 15.5755 7.65151 17.7199 8.22453 19.7884C9.18277 23.2233 10.637 24.1294 14.2244 24.0298C16.3142 23.9729 17.7155 23.0193 18.457 21.1548C19.6801 18.0947 20.2098 14.9018 19.9209 11.6188C19.7042 9.14698 18.4233 7.59085 16.1698 7.3062C14.4844 7.09745 12.7365 7.11168 11.0463 7.28248C9.16833 7.47225 7.92117 8.6346 7.48297 10.4754C7.25184 11.4385 7.18443 12.4348 7.00144 13.7015V13.6967ZM36.2929 10.7126C36.5914 12.4253 36.8515 14.1142 37.1885 15.789C37.5978 17.8148 38.8691 19.0863 40.9204 19.4848C43.1739 19.9212 45.1241 19.537 46.7613 17.6772C48.8223 15.3335 51.0903 13.1701 53.2812 10.9403C53.6135 10.6035 54.0132 10.3331 54.5525 9.88709C53.5172 9.83016 52.6986 9.70681 51.8944 9.75899C48.6104 9.96774 45.3312 10.2524 42.0472 10.4659C40.1259 10.5892 38.1997 10.6367 36.2929 10.7126ZM38.6235 31.4214C37.776 29.5901 37.0441 27.9438 36.2495 26.3213C35.9751 25.7615 35.638 25.1969 35.1902 24.7746C34.7135 24.3239 34.1212 23.8875 33.5048 23.7167C31.935 23.2849 30.3797 23.47 28.911 24.2053C26.6671 25.3345 26.4504 26.6676 28.3765 28.2759C29.5033 29.2153 30.789 29.9649 31.9784 30.8378C32.5947 31.2933 33.2496 31.4546 34.0104 31.4309C35.4839 31.3929 36.9622 31.4214 38.6235 31.4214ZM46.9395 47.9837H49.1112C49.6553 43.8941 50.1946 39.852 50.7195 35.8098C50.7532 35.5537 50.7484 35.2263 50.6184 35.0223C49.9683 34.0402 49.2749 33.0866 48.5911 32.1235C47.2814 32.4035 45.8753 32.7023 44.4115 33.0107C45.2927 34.0355 46.145 34.9891 47.3488 35.5489C47.8351 35.7766 48.0566 36.1372 48.0085 36.6591C47.8688 38.1583 47.7292 39.6575 47.5847 41.1567C47.3729 43.4149 47.161 45.6732 46.9443 47.9742L46.9395 47.9837ZM20.3831 48.0216C20.9032 45.4407 21.3847 42.8883 21.9481 40.3549C22.2563 38.9743 22.2322 37.5036 23.0219 36.289C21.5725 35.4351 20.1327 34.5811 18.8037 33.7935C18.9626 38.4809 19.1264 43.2394 19.2901 48.0264H20.388L20.3831 48.0216ZM64.4286 32.3465C65.2713 30.9185 65.2328 28.7836 64.3949 28.1905C63.6582 28.9876 63.663 30.9612 64.4286 32.3465ZM21.5918 4.1465C21.5388 4.11804 21.4858 4.08483 21.4329 4.05636C20.6239 4.76801 19.8198 5.48439 18.9771 6.2245C19.343 6.52339 19.6849 6.79381 20.1424 7.16861C20.6432 6.12013 21.1151 5.13332 21.587 4.1465H21.5918ZM5.75428 4.0706C5.6965 4.10855 5.64353 4.14176 5.58575 4.17972C6.06246 5.16178 6.53436 6.14385 7.03515 7.1781C7.49742 6.79381 7.83449 6.51865 8.18601 6.22925C7.35296 5.48914 6.55362 4.78224 5.75428 4.07534V4.0706ZM5.29683 11.0494C4.36748 11.1538 3.55369 11.2487 2.73509 11.3436C3.41405 12.1549 4.17968 12.5629 5.162 12.6862C5.20534 12.1454 5.24386 11.6899 5.29201 11.0494H5.29683ZM22.0107 12.876C22.9593 12.3968 23.7346 12.0078 24.5099 11.6188C24.4858 11.5239 24.4569 11.4242 24.4328 11.3293C23.5998 11.244 22.7715 11.1586 21.8759 11.0684C21.9192 11.6852 21.9529 12.1406 22.0107 12.876Z" fill="#333CDF"/>
</g>
<defs>
<clipPath id="clip0_12_183">
<rect width="67" height="50" fill="white"/>
</clipPath>
</defs>
</svg>
