<svg width="55" height="53" viewBox="0 0 55 53" fill="none" xmlns="http://www.w3.org/2000/svg">
<g clip-path="url(#clip0_12_175)">
<path d="M0 16.209C0.124989 15.6395 0.221134 15.0601 0.37016 14.5005C2.39402 6.89862 11.2442 3.8975 17.2485 8.7706C17.5562 9.01822 17.8542 9.2807 18.1859 9.56298C16.5659 11.227 14.9795 12.8612 13.2969 14.5896H18.6618C18.9166 13.2525 19.181 11.9054 19.4358 10.5534C20.0752 7.19081 20.7193 3.83312 21.3539 0.465521C21.4116 0.188189 21.4549 0 21.8058 0C24.2046 0.014857 26.6034 0.00990469 29.0023 0.00990469C29.0696 0.00990469 29.1417 0.0346664 29.2426 0.0594281V1.80265H22.9163C22.1038 6.07158 21.2962 10.3108 20.479 14.6193H29.2811V21.8894C30.0262 22.0429 30.555 21.9637 30.9108 21.1861C31.2665 20.4136 32.002 20.0768 32.8289 20.1065C33.699 20.1412 34.3624 20.5819 34.747 21.3991C34.8864 21.6962 34.9393 22.033 35.0883 22.3252C35.1844 22.5134 35.3719 22.7659 35.5354 22.7758C35.6988 22.7857 35.9344 22.5678 36.0353 22.3896C36.6506 21.3099 37.4294 20.8791 38.5639 21.0524C39.3091 21.1663 39.8619 21.5823 40.184 22.2707C40.3811 22.6916 40.6311 22.8848 41.0974 22.8501C41.7367 22.8006 42.2896 23.0631 42.7366 23.5335C42.9626 23.7713 43.1693 24.0238 43.4241 24.321C43.5443 24.1031 43.6308 23.9743 43.6933 23.8356C44.5874 21.8448 45.4864 19.8589 46.3565 17.8631C46.4575 17.6304 46.4719 17.2886 46.3902 17.041C45.6306 14.7332 46.693 12.2571 48.8707 11.3161C51.01 10.39 53.4953 11.3458 54.5337 13.4902C55.5865 15.6593 54.8125 18.2543 52.7646 19.4924C52.5291 19.6361 52.2983 19.8886 52.1877 20.1511C51.1782 22.5876 50.1975 25.0341 49.1928 27.5103C50.3273 28.3819 51.2455 29.4268 51.9426 30.6748C52.63 31.908 53.0242 33.2352 53.1877 34.706H55C55 34.9685 55 35.1617 55 35.3597C55 37.202 55 39.0492 55 40.8915C54.9952 47.1117 50.8657 52.0244 44.8951 52.9059C44.3327 52.9901 43.751 52.9901 43.1789 52.9951C32.4202 52.9951 21.6616 52.9951 10.8981 52.9951C8.94633 52.9951 7.95603 51.9749 7.83585 49.9642C7.58107 45.73 7.26859 41.5007 7.01862 37.2714C6.72537 32.2645 6.4802 27.2577 6.2158 22.2509C6.2158 22.1964 6.20138 22.1469 6.19177 22.0677C5.18224 23.1076 4.18713 24.1427 3.16799 25.1876C1.47103 23.3454 0.466305 21.3149 0.110567 18.9526C0.0865309 18.7793 0.0384582 18.601 0 18.4227C0 17.6848 0 16.9469 0 16.209ZM48.7602 40.218H21.3154C20.8828 46.1212 25.2814 51.1181 30.9204 51.1726C35.146 51.2122 39.3716 51.2419 43.5923 51.1627C47.3468 51.0884 50.1735 49.2659 52.0387 45.9132C53.005 44.1749 53.3223 42.2732 53.1973 40.213H50.6206V38.3609H53.1973V36.6127H21.3251V38.3906H48.7553V40.218H48.7602ZM16.513 25.9107C15.8496 25.8067 15.2583 25.6581 14.6574 25.6234C12.4845 25.4947 10.4414 26.089 8.45118 26.9061C8.32139 26.9606 8.1964 27.1785 8.17236 27.3369C8.1339 27.5846 8.18198 27.852 8.20121 28.1095C8.40311 31.1602 8.60502 34.2158 8.80211 37.2664C9.08094 41.5502 9.35976 45.8389 9.64339 50.1227C9.69627 50.9151 9.98951 51.1825 10.7779 51.1825C15.3064 51.1825 19.8348 51.1825 24.3633 51.1825C24.4834 51.1825 24.6084 51.1577 24.8151 51.133C24.5988 50.9745 24.4642 50.8804 24.3392 50.7814C21.45 48.5627 19.7723 45.6161 19.5656 41.9018C19.4406 39.6386 19.5271 37.3655 19.5271 35.0973C19.5271 34.9933 19.5512 34.8843 19.5752 34.7258H21.3491C21.7433 32.5963 22.8105 31.0165 24.6132 29.9865C24.7046 29.932 24.8151 29.8082 24.8199 29.7091C24.8392 29.2387 24.8296 28.7682 24.8296 28.4017C23.6277 28.1244 22.5221 27.9114 21.4356 27.6044C20.3588 27.2973 19.306 26.8962 18.2099 26.5297C16.8639 33.6017 15.5275 40.6241 14.1766 47.696C13.5661 47.5722 13.0181 47.4633 12.4364 47.3444C13.7969 40.1932 15.1429 33.1163 16.513 25.9156V25.9107ZM26.6756 29.2585C30.7569 29.3773 32.1991 30.4965 33.699 34.711C34.521 29.6645 37.3525 26.6486 42.2223 25.5541C41.8281 25.2173 41.4243 24.7469 40.9868 24.7172C39.8907 24.6379 39.1216 24.217 38.636 23.1918C38.4053 22.6966 37.915 22.7263 37.6361 23.2067C37.5881 23.2859 37.5544 23.3701 37.5111 23.4494C37.0448 24.2962 36.343 24.7271 35.3863 24.6577C34.4297 24.5834 33.8047 24.0387 33.4586 23.1374C33.3817 22.9343 33.3529 22.7016 33.2423 22.5134C33.1221 22.3103 32.949 22.028 32.7808 22.0132C32.6125 21.9983 32.3577 22.241 32.252 22.4341C31.7761 23.3305 31.0694 23.7762 30.0743 23.7614C29.3532 23.7514 29.2619 23.8406 29.2763 24.5884C29.2955 25.6234 28.9013 26.4059 28.036 26.9358C27.8341 27.0596 27.661 27.233 27.4495 27.327C26.5794 27.7034 26.4929 28.4067 26.6707 29.2684L26.6756 29.2585ZM19.7771 18.3088H23.0316V20.052C22.9547 20.0719 22.9211 20.0917 22.8826 20.0917C22.2048 20.0917 21.5222 20.0917 20.8443 20.1016C20.3828 20.1115 19.8012 19.9728 19.5031 20.2056C19.2291 20.4185 19.2531 21.0475 19.1666 21.4981C18.9599 22.5579 18.7676 23.6177 18.5705 24.6924C19.1137 24.8905 19.5896 25.1034 20.0896 25.2372C21.6568 25.6581 23.2335 26.0691 24.8103 26.4455C25.0843 26.5099 25.4353 26.4901 25.6756 26.3564C26.1948 26.0741 26.6707 25.7027 27.1419 25.3412C27.2957 25.2223 27.4832 25.0093 27.488 24.836C27.5168 23.276 27.5024 21.716 27.5024 20.0966H24.868V18.2791H27.4639V16.4814H20.1329C20.0223 17.0757 19.9165 17.6304 19.7867 18.3138L19.7771 18.3088ZM47.6737 26.4951C47.7554 26.3069 47.8372 26.1286 47.9093 25.9404C48.8851 23.5286 49.8466 21.1168 50.8465 18.7149C50.9475 18.4673 51.2071 18.2246 51.4522 18.1157C52.3993 17.6997 53.0146 17.0163 53.1828 15.9664C53.3751 14.7431 52.7983 13.619 51.7455 13.0791C50.6975 12.5443 49.4476 12.7721 48.6448 13.6437C47.8372 14.5203 47.6641 15.7732 48.2746 16.8578C48.4909 17.2391 48.4861 17.5264 48.3083 17.9126C47.2074 20.3244 46.1258 22.7511 45.0393 25.1728C44.9672 25.3312 44.9095 25.4996 44.8615 25.6234C45.8133 25.9156 46.7171 26.1979 47.6737 26.4901V26.4951ZM3.32663 22.4094C3.61026 22.0875 3.86505 21.7458 4.1679 21.4684C4.47557 21.1911 4.50441 20.9781 4.31693 20.5869C2.9757 17.8681 3.42758 14.6441 5.4178 12.4205C7.59549 9.99383 10.9365 9.36984 13.8161 10.8407C13.9795 10.9249 14.2584 10.9942 14.3737 10.91C14.8016 10.5931 15.1766 10.2068 15.5948 9.83041C12.1191 7.24528 7.03304 7.90394 4.11502 11.1824C0.874924 14.8273 1.41334 19.8193 3.32663 22.4094ZM8.01853 25.0787C10.9317 24.0238 13.7921 23.2859 16.8495 24.1476C17.1091 22.7857 17.3591 21.4635 17.609 20.1362H8.01853V25.0787ZM35.5738 34.7209C36.0497 34.7209 36.4776 34.7011 36.9054 34.7258C37.2419 34.7457 37.3477 34.6169 37.4198 34.2801C38.0207 31.5415 40.2465 29.5061 42.8424 29.2783C46.0489 28.996 48.789 31.0611 49.5389 34.3148C49.5726 34.4683 49.7408 34.6912 49.8658 34.7011C50.3562 34.7457 50.8561 34.7209 51.3513 34.7209C51.1878 31.6257 48.414 27.4756 43.5491 27.4261C38.7947 27.3766 35.8238 31.3285 35.5786 34.7258L35.5738 34.7209ZM5.87449 19.6955C8.24928 17.2787 10.5856 14.9066 12.946 12.5096C11.1721 11.4201 8.62425 11.8212 7.02823 13.3515C5.32646 14.9858 4.83131 17.6056 5.87449 19.6955ZM47.7554 34.6912C47.491 32.6805 45.5104 31.0364 43.4193 31.0661C41.3473 31.0958 39.3764 32.7746 39.1889 34.6912H47.7554ZM23.2191 34.6912H31.7665C31.6751 32.8737 29.6897 31.1503 27.6226 31.0661C25.541 30.9819 23.4403 32.6904 23.2191 34.6912ZM9.81645 18.1206L9.92221 18.2841C12.4989 18.2841 15.0708 18.2841 17.6475 18.2742C17.7725 18.2742 17.9744 18.1503 17.9984 18.0513C18.1234 17.5412 18.2003 17.0163 18.2917 16.4963C18.1811 16.4666 18.1282 16.4467 18.0753 16.4467C15.9794 16.4467 13.8882 16.4418 11.7922 16.4467C11.6624 16.4467 11.5038 16.4963 11.4077 16.5805C10.8692 17.0856 10.3404 17.6056 9.81164 18.1206H9.81645Z" fill="#333CDF"/>
</g>
<defs>
<clipPath id="clip0_12_175">
<rect width="55" height="53" fill="white"/>
</clipPath>
</defs>
</svg>
