<svg width="51" height="45" viewBox="0 0 51 45" fill="none" xmlns="http://www.w3.org/2000/svg">
<g clip-path="url(#clip0_12_190)">
<path d="M-0.000274984 12.0449C0.341647 11.4464 0.617657 10.7897 1.05021 10.266C1.35094 9.90025 1.83292 9.62178 2.29019 9.48046C2.78454 9.32253 3.10998 9.05653 3.41483 8.66584C5.2851 6.27598 7.18833 3.9069 9.05037 1.50873C9.84956 0.477972 10.8547 0 12.1442 0C21.0547 0.00831255 29.9694 0.00831255 38.88 0C40.1488 0 41.1416 0.473815 41.9367 1.47963C43.91 3.98171 45.908 6.46301 47.9142 8.94015C48.0666 9.13134 48.3097 9.29759 48.5404 9.36825C50.0234 9.83375 50.9832 11.0889 50.9915 12.6559C50.9997 14.3807 51.0121 16.1056 50.9915 17.8304C50.9668 19.8961 50.1058 21.542 48.4291 22.7348C48.1572 22.926 48.0872 23.1255 48.0872 23.4331C48.0996 25.0582 48.0913 26.6833 48.0913 28.3084C48.0913 28.458 48.0996 28.6118 48.0831 28.7614C48.0213 29.3308 47.5764 29.7382 47.0532 29.7174C46.5218 29.6966 46.1098 29.2727 46.1057 28.6908C46.0933 27.2319 46.1016 25.7772 46.1016 24.3184C46.1016 24.1355 46.1016 23.9568 46.1016 23.7365C43.6381 24.0067 41.6813 23.1588 40.2065 21.197C37.6977 24.6384 32.9314 24.6633 30.402 21.1929C29.1661 22.8429 27.5471 23.7947 25.4832 23.7864C23.4399 23.7781 21.8292 22.8429 20.6139 21.1929C18.0269 24.6924 13.2853 24.6052 10.8012 21.1929C9.32226 23.1505 7.37783 24.0233 4.92258 23.7365V42.9343H8.07404V42.34C8.07404 37.685 8.07404 33.0299 8.07404 28.3707C8.07404 27.3441 8.39536 27.02 9.41701 27.02C12.1236 27.02 14.826 27.02 17.5325 27.02C18.5253 27.02 18.8384 27.34 18.8384 28.3458C18.8384 33.0008 18.8384 37.6559 18.8384 42.315V42.9426H46.1016C46.1016 42.7473 46.1016 42.5686 46.1016 42.394C46.1016 40.8354 46.1016 39.2768 46.1016 37.7224C46.1016 36.9701 46.4723 36.5461 47.0985 36.5503C47.7164 36.5544 48.0913 36.9909 48.0913 37.7348C48.0954 39.2768 48.0913 40.8146 48.0913 42.3566C48.0913 42.5395 48.0913 42.7224 48.0913 42.9759C48.6804 42.9759 49.2407 42.9759 49.7968 42.9759C50.5383 42.98 50.9791 43.35 50.9874 43.9568C50.9915 44.5594 50.5342 44.9626 49.8174 44.9834C49.735 44.9834 49.6526 44.9834 49.5702 44.9834C33.5205 44.9834 17.4707 44.9834 1.42097 44.9917C0.807156 44.9917 0.32105 44.8462 -0.000274984 44.2976V43.6949C0.259256 43.1463 0.67945 42.926 1.2809 42.9676C1.80409 43.0008 2.33139 42.9759 2.86693 42.9759C2.87929 42.7972 2.89577 42.685 2.89577 42.5686C2.89577 36.1638 2.89577 29.7548 2.90401 23.35C2.90401 23.0632 2.80514 22.9052 2.57444 22.7473C1.40449 21.9493 0.634135 20.8479 0.2263 19.4888C0.13567 19.1895 0.0738769 18.8778 -0.00439453 18.5744C-0.00439453 16.3965 -0.00439453 14.2186 -0.00439453 12.0407L-0.000274984 12.0449ZM10.0926 29.0565V42.9468H16.8157V29.0565H10.0926ZM21.7262 9.22278H29.2526C28.956 6.90357 28.6594 4.61762 28.3752 2.32751C28.3381 2.01579 28.1568 2.01164 27.9261 2.01164C26.2824 2.01164 24.6429 2.02411 22.9992 2.00748C22.6531 2.00748 22.5501 2.12801 22.5131 2.46052C22.2659 4.68828 21.9981 6.91189 21.7262 9.22278ZM30.3361 2.01579C30.6492 4.45553 30.9581 6.83707 31.263 9.21031H38.4845C37.2075 6.84123 35.9675 4.53865 34.7193 2.24023C34.6657 2.14048 34.5257 2.02826 34.4227 2.02826C33.0838 2.01579 31.7408 2.01995 30.332 2.01995L30.3361 2.01579ZM19.7159 9.23109C20.0001 6.82876 20.2803 4.45137 20.5645 2.01579C19.2668 2.01579 18.0557 2.02826 16.8487 2.00748C16.5068 2.00332 16.3173 2.10723 16.1525 2.4148C15.0072 4.54697 13.8414 6.67082 12.6879 8.79468C12.6179 8.92352 12.5643 9.05653 12.4861 9.23109H19.72H19.7159ZM11.7858 16.9992C11.6786 18.8612 12.1771 20.3865 13.8373 21.2968C15.2256 22.0615 16.6303 21.9742 17.928 21.064C19.3204 20.0873 19.7282 18.6658 19.5841 16.995H11.7899L11.7858 16.9992ZM31.4072 16.995C31.2589 18.7822 31.7326 20.2618 33.2815 21.2053C34.711 22.074 36.1693 22.0116 37.5329 21.0598C38.9294 20.0873 39.3208 18.6575 39.1725 16.9992H31.403L31.4072 16.995ZM29.3639 17.0033H21.6273C21.4502 18.749 21.9157 20.2037 23.4029 21.1596C24.7541 22.0241 26.1753 22.0366 27.5389 21.1845C29.0631 20.2328 29.5328 18.7697 29.3597 17.0033H29.3639ZM48.977 16.9992H41.2323C41.0593 18.6908 41.4836 20.1205 42.9089 21.0973C44.2189 21.9909 45.6278 22.0615 46.9955 21.2635C48.5939 20.3325 49.1459 18.8487 48.977 16.9992ZM2.0183 16.995C1.84528 18.7781 2.35199 20.2411 3.88034 21.1929C5.2851 22.0698 6.73107 22.0199 8.0864 21.0765C9.49116 20.0998 9.96079 18.6908 9.73833 16.995H2.0183ZM19.5799 14.9335V11.3051H11.7816V14.9335H19.5799ZM39.1766 11.3051H31.4195V14.9418H39.1766V11.3051ZM21.6191 14.9252H29.3515V11.3092H21.6191V14.9252ZM48.9976 14.9418C48.9976 14.2436 48.9976 13.5786 48.9976 12.9094C48.9976 11.7539 48.5115 11.2718 47.3539 11.2677C45.4795 11.2677 43.6051 11.2677 41.7266 11.2677H41.2282V14.9418H48.9976ZM2.0801 14.921H9.7301V11.2926C9.54472 11.2843 9.38405 11.2677 9.22339 11.2677C7.39843 11.2677 5.57347 11.2677 3.74851 11.2677C3.50134 11.2677 3.24593 11.276 3.01111 11.3425C2.48381 11.4879 2.12129 11.8537 2.09246 12.4065C2.04714 13.2377 2.0801 14.0732 2.0801 14.9169V14.921ZM36.9685 2.04073C36.9768 2.11554 36.9644 2.16958 36.985 2.20698C38.2085 4.48462 39.432 6.7581 40.6679 9.02743C40.7297 9.13965 40.9192 9.24771 41.051 9.24771C42.4929 9.26018 43.9347 9.25603 45.3765 9.24771C45.4136 9.24771 45.4507 9.202 45.5166 9.16043C43.7122 6.91189 41.9285 4.67165 40.1159 2.45636C39.9429 2.24855 39.6133 2.07398 39.3455 2.05736C38.5587 2.00332 37.7719 2.03658 36.9644 2.03658L36.9685 2.04073ZM5.48696 9.25603C7.06063 9.25603 8.50247 9.26434 9.94019 9.2394C10.0803 9.2394 10.2656 9.04406 10.3521 8.89027C11.5345 6.74148 12.7044 4.58853 13.8744 2.43142C13.9403 2.31089 13.9856 2.18204 14.0597 2.01164C13.3347 2.01164 12.6879 2.01995 12.0412 2.01164C11.4685 2.00332 11.0278 2.2153 10.6735 2.67664C9.92371 3.65752 9.14512 4.61347 8.383 5.58188C7.44787 6.77057 6.51273 7.95511 5.49108 9.25187L5.48696 9.25603Z" fill="#333CDF"/>
<path d="M30.1922 36.409C31.1026 36.5877 31.4734 36.9368 31.4322 37.5395C31.3869 38.1754 30.9378 38.4788 30.0439 38.4788C27.6051 38.4788 25.1663 38.4788 22.7276 38.4788C21.949 38.4788 21.4917 37.9925 21.6029 37.3026C21.6812 36.7914 22.0066 36.5503 22.81 36.4256C22.81 36.0682 22.81 35.7024 22.81 35.3367C22.81 33.5453 22.81 31.754 22.81 29.9626C22.81 29.1895 23.1684 28.8155 23.9346 28.8113C25.6442 28.803 27.3538 28.803 29.0593 28.8113C29.8503 28.8155 30.1881 29.1771 30.1922 30C30.1963 31.9576 30.1922 33.9194 30.1922 35.877C30.1922 36.0599 30.1922 36.2386 30.1922 36.4131V36.409ZM28.1612 36.4464V30.8396H24.8368V36.4464H28.1612Z" fill="#333CDF"/>
<path d="M42.5302 36.4464C42.6702 36.4589 42.765 36.463 42.8597 36.4796C43.4447 36.5752 43.7866 36.9909 43.7496 37.5561C43.7125 38.084 43.3253 38.4663 42.7568 38.4788C42.0111 38.4954 41.2655 38.483 40.5157 38.483C38.7237 38.483 36.9317 38.483 35.1397 38.483C34.39 38.483 33.9451 38.1421 33.9039 37.5436C33.8627 36.9493 34.2499 36.5752 35.0161 36.463C35.045 36.4589 35.0738 36.4339 35.1397 36.4007C35.1397 35.9892 35.1397 35.5569 35.1397 35.1247C35.1397 33.4165 35.1397 31.7082 35.1397 30.0042C35.1397 29.1812 35.4775 28.8238 36.2726 28.8196C37.9822 28.8113 39.6918 28.8113 41.3973 28.8196C42.1594 28.8238 42.5178 29.1978 42.5178 29.9709C42.5219 31.9451 42.5178 33.9235 42.5178 35.8978C42.5178 36.0806 42.5178 36.2594 42.5178 36.4547L42.5302 36.4464ZM40.5198 30.852H37.1665V36.4339H40.5198V30.852Z" fill="#333CDF"/>
<path d="M12.1197 37.0823C11.5553 37.074 11.1269 36.6209 11.1475 36.0474C11.164 35.532 11.6254 35.1164 12.1815 35.1164C12.717 35.1164 13.1537 35.5819 13.129 36.1222C13.1043 36.6667 12.6635 37.0906 12.1238 37.0823H12.1197Z" fill="#333CDF"/>
</g>
<defs>
<clipPath id="clip0_12_190">
<rect width="51" height="45" fill="white"/>
</clipPath>
</defs>
</svg>
