<svg width="49" height="48" viewBox="0 0 49 48" fill="none" xmlns="http://www.w3.org/2000/svg">
<g clip-path="url(#clip0_12_177)">
<path d="M49 38.3826C48.7743 39.2909 48.6327 40.2253 48.3141 41.1031C46.6943 45.5576 42.1138 48.3911 37.3253 47.9565C31.1517 47.4003 26.7526 41.7941 27.7528 35.7621C28.5539 30.9208 32.6298 27.292 37.613 26.9791C42.9414 26.6444 47.7078 30.2167 48.7876 35.3579C48.8673 35.7403 48.9336 36.1228 49.0044 36.5052V38.387L49 38.3826ZM38.299 45.9357C43.0653 45.9357 46.92 42.1287 46.9067 37.4439C46.8934 32.7851 43.0255 28.9869 38.299 28.9869C33.5548 28.9869 29.678 32.8156 29.6868 37.4917C29.7001 42.1548 33.5592 45.9401 38.299 45.9357Z" fill="#333CDF"/>
<path d="M10.586 47.7436C6.50117 47.5785 3.29705 45.8662 1.33652 42.3113C-0.570905 38.8563 -0.411585 35.3362 1.69942 31.9899C7.41726 22.9461 13.1572 13.9154 18.9282 4.90647C21.1189 1.48194 24.3495 -0.147761 28.4653 0.00869015C33.0812 0.18687 37.3165 3.91996 38.0998 8.40489C38.5645 11.0602 38.06 13.5113 36.6172 15.7842C30.8861 24.8018 25.155 33.8151 19.4106 42.8284C17.6713 45.562 15.162 47.1743 11.9181 47.6567C11.4799 47.7219 11.0285 47.7175 10.586 47.7436ZM11.5508 20.3908C11.4755 20.4864 11.4268 20.5472 11.387 20.6124C8.72723 24.7931 6.05418 28.9651 3.41211 33.1589C2.08002 35.271 1.81006 37.5395 2.527 39.9254C3.67322 43.7324 8.01914 46.3225 11.9535 45.5794C14.4672 45.1013 16.3525 43.7845 17.6979 41.6681C19.7071 38.5086 21.7163 35.3492 23.7255 32.1941C24.3761 31.1728 25.0222 30.1516 25.6905 29.0999C20.9772 26.1968 16.2861 23.3068 11.5508 20.3951V20.3908ZM12.6394 18.635C17.3837 21.5555 22.0792 24.4454 26.7703 27.3354C26.8456 27.2529 26.881 27.2225 26.9075 27.1833C29.585 22.9765 32.2625 18.7741 34.9311 14.563C35.6967 13.3592 36.157 12.038 36.1747 10.6169C36.2189 7.14459 34.6611 4.58922 31.5455 2.95084C28.0493 1.11254 23.4556 2.12947 21.1808 5.31933C20.0479 6.90557 19.0433 8.58307 17.9944 10.2258C16.2153 13.0072 14.4495 15.7972 12.6394 18.635Z" fill="#333CDF"/>
<path d="M42.0297 33.2719C41.981 33.3849 41.9102 33.6413 41.773 33.8586C40.0471 36.6313 38.3078 39.4039 36.573 42.1722C36.1835 42.7937 35.6082 42.9805 35.086 42.6807C34.5107 42.3504 34.3912 41.7463 34.8028 41.0901C36.542 38.3044 38.2857 35.5231 40.0338 32.7417C40.3701 32.2028 40.8083 32.0246 41.3128 32.1724C41.7465 32.3028 42.0209 32.6635 42.0297 33.2719Z" fill="#333CDF"/>
<path d="M4.48755 37.6134C4.51853 36.3618 4.77079 35.4187 5.29743 34.5496C5.6559 33.9585 6.21352 33.7673 6.74902 34.0368C7.27124 34.3062 7.45711 34.8842 7.13404 35.4883C6.4171 36.8311 6.34629 38.1653 7.18715 39.4517C7.49694 39.9254 7.96605 40.3078 8.41746 40.6729C9.00164 41.1509 9.17866 41.6985 8.82019 42.2113C8.47499 42.7111 7.84214 42.7719 7.2137 42.3591C5.40364 41.1683 4.53623 39.4821 4.49197 37.6091L4.48755 37.6134Z" fill="#333CDF"/>
<path d="M33.8291 10.291C33.838 11.2818 33.5857 12.2075 33.0989 13.0723C32.7094 13.7633 32.1385 13.9936 31.5853 13.6981C31.0277 13.4026 30.8861 12.8116 31.2534 12.1119C31.7978 11.0819 31.8996 10.0346 31.5013 8.94376C31.2092 8.13109 30.6515 7.52267 29.9346 7.04897C29.523 6.77952 29.2442 6.43186 29.346 5.9147C29.4965 5.15852 30.3064 4.863 31.0277 5.30193C32.0987 5.95816 32.9263 6.84471 33.3644 8.0094C33.6344 8.73081 33.7583 9.50872 33.9442 10.2606C33.9043 10.2692 33.8689 10.2779 33.8291 10.2866V10.291Z" fill="#333CDF"/>
</g>
<defs>
<clipPath id="clip0_12_177">
<rect width="49" height="48" fill="white"/>
</clipPath>
</defs>
</svg>
