<svg width="54" height="55" viewBox="0 0 54 55" fill="none" xmlns="http://www.w3.org/2000/svg">
<g clip-path="url(#clip0_2022_36)">
<path d="M1.3838 55C0.364811 54.5707 -0.0188811 53.8017 -1.09503e-05 52.6803C0.0440193 49.8736 0.0125691 47.0605 0.0125691 44.2474C0.0125691 42.876 0.704474 42.1776 2.06312 42.1647C2.86825 42.1647 3.66708 42.1647 4.52253 42.1647C4.52253 41.8764 4.52253 41.6649 4.52253 41.4535C4.52253 34.1291 4.52253 26.8111 4.52253 19.4868C4.52253 18.423 4.8559 17.5644 5.73022 16.9492C6.25858 16.5775 6.85613 16.4878 7.48514 16.4878C10.4729 16.4878 13.4607 16.4878 16.4422 16.4878C16.6497 16.4878 16.8573 16.4878 17.1152 16.4878C17.1152 16.161 17.1152 15.8983 17.1152 15.6356C17.1404 14.0592 18.1908 12.9314 19.7256 12.8224C19.9205 12.8096 20.1092 12.8096 20.3042 12.8096C24.7513 12.8096 29.1921 12.8096 33.6391 12.8096C35.9035 12.8096 36.8848 13.7836 36.9162 16.0841C36.9162 16.1931 36.9288 16.2956 36.9414 16.4878H37.5515C40.4324 16.4878 43.3132 16.5647 46.1941 16.4622C48.3515 16.3853 49.5404 17.7246 49.5215 19.8264C49.4523 27.0226 49.4963 34.2188 49.4963 41.415C49.4963 41.6265 49.4963 41.8443 49.4963 42.1583H50.7606C51.094 42.1583 51.4274 42.1776 51.7607 42.1583C52.8615 42.075 53.6289 42.5236 54 43.6066V53.5966C53.7421 54.2631 53.2829 54.7309 52.6288 54.9936H1.3838V55ZM35.111 42.1327C35.111 41.9341 35.111 41.7931 35.111 41.6457C35.111 33.0525 35.111 24.4658 35.111 15.8727C35.111 14.9627 34.8091 14.6679 33.897 14.6679C29.3305 14.6679 24.7639 14.6679 20.1973 14.6679C19.1595 14.6679 18.9016 14.9371 18.9016 16.0136C18.9016 24.5171 18.9016 33.0205 18.9016 41.5175V42.1327H35.111ZM32.444 47.6756V53.1545H41.3256C41.3507 53.1032 41.3822 53.0712 41.3822 53.0456C41.3885 51.6486 41.401 50.2517 41.3947 48.8547C41.3947 48.7586 41.3067 48.6048 41.2312 48.5728C40.6777 48.3805 40.4135 48.0153 40.5456 47.4257C40.6462 46.9515 41.0299 46.7401 41.7155 46.7401C43.439 46.7401 45.1625 46.7401 46.8797 46.7401C47.4584 46.7401 48.037 46.7272 48.622 46.7529C49.0246 46.7657 49.3831 46.9836 49.4334 47.3873C49.4712 47.682 49.3517 48.0409 49.2007 48.3164C49.1126 48.483 48.8296 48.5471 48.6535 48.6432V53.1225H52.1633V44.0423H1.84926V53.1225H5.39055V48.6368C4.68607 48.3357 4.43447 47.996 4.54769 47.4642C4.65462 46.9772 4.99428 46.7401 5.46603 46.7401C7.83738 46.7337 10.2087 46.7337 12.5801 46.7401C13.0581 46.7401 13.3915 47.0092 13.4858 47.4898C13.5802 47.9704 13.3663 48.3613 12.9072 48.5023C12.5927 48.5984 12.6052 48.7906 12.6052 49.0213C12.6052 50.2581 12.6052 51.4948 12.6052 52.7252C12.6052 52.8597 12.6367 52.9943 12.6493 53.1225H21.5685V47.6628C21.2666 47.6628 21.0024 47.6756 20.7383 47.6628C20.1533 47.6244 19.801 47.2463 19.8199 46.7016C19.8388 46.1826 20.1847 45.8558 20.7634 45.8365C21.2352 45.8237 21.7132 45.8365 22.185 45.8365C25.8206 45.8365 29.4563 45.8365 33.0982 45.8365C33.8027 45.8365 34.1738 46.1505 34.1864 46.7208C34.1989 47.3104 33.8027 47.6564 33.0919 47.6692C32.8843 47.6692 32.6768 47.6692 32.4377 47.6692L32.444 47.6756ZM47.6659 42.1327C47.6722 41.9597 47.6911 41.8187 47.6911 41.6777C47.6911 34.2893 47.6911 26.8944 47.6911 19.506C47.6911 18.6345 47.408 18.3397 46.5589 18.3397C43.5019 18.3397 40.445 18.3397 37.3943 18.3397C37.2433 18.3397 37.0924 18.3654 36.9477 18.3782V42.1391H47.6722L47.6659 42.1327ZM17.0712 42.1455V18.3397H16.5239C13.5362 18.3397 10.5547 18.3397 7.56691 18.3397C6.57308 18.3397 6.32148 18.5961 6.32148 19.6021C6.32148 26.9201 6.32148 34.238 6.32148 41.556C6.32148 41.7418 6.34035 41.9341 6.34664 42.1455H17.0712ZM10.7685 53.1417V48.6112H7.23354V53.1417H10.7685ZM46.779 48.6048H43.2566V53.1417H46.779V48.6048ZM26.0659 53.1545V47.7205H23.4556V53.1545H26.0659ZM30.5696 53.1481V47.7141H27.9529V53.1481H30.5696Z" fill="#333CDF"/>
<path d="M54 9.76582C53.7044 10.1567 53.459 10.6053 53.1068 10.9321C52.7357 11.2781 52.6099 11.6305 52.742 12.1047C52.7923 12.2778 52.8112 12.4572 52.8363 12.6302C52.937 13.3479 52.7483 13.9567 52.1444 14.3604C51.5406 14.7641 50.8927 14.7513 50.3077 14.3475C49.7479 13.9567 49.2762 13.9182 48.7038 14.3347C48.1125 14.7641 47.4395 14.7833 46.8293 14.3475C46.2255 13.9118 46.0116 13.2966 46.1689 12.5597C46.1878 12.47 46.1689 12.3739 46.2003 12.297C46.4331 11.6754 46.2003 11.2333 45.7475 10.7975C45.4518 10.5156 45.1751 10.1375 45.0618 9.74659C44.7851 8.80461 45.3826 7.837 46.3639 7.73448C47.2319 7.64476 47.7477 7.31155 48.037 6.45287C48.2509 5.81207 48.8233 5.48526 49.49 5.49167C50.1568 5.49167 50.7292 5.79925 50.9493 6.45287C51.2387 7.30514 51.7482 7.69603 52.6288 7.72807C53.3395 7.76011 53.6855 8.33683 54 8.90714V9.76582ZM49.5026 7.57427C49.2007 8.96481 48.3138 9.49027 46.9929 9.5095C48.1754 10.3169 48.4522 11.3422 47.9804 12.6686C48.9931 11.7907 49.9681 11.7715 50.9556 12.6879C50.9116 11.9894 50.7229 11.3742 50.8801 10.8744C51.05 10.3554 51.5532 9.95806 51.9872 9.41338C50.6726 9.49027 49.7982 8.97763 49.4963 7.57427H49.5026Z" fill="#333CDF"/>
<path d="M23.0027 8.94559C23.0656 8.53547 23.1788 8.02924 23.2039 7.51019C23.2165 7.2795 23.1159 7.00396 22.9775 6.81813C22.7196 6.4785 22.3925 6.20296 22.1032 5.88896C21.6 5.34428 21.449 4.69707 21.6755 3.9986C21.9019 3.30013 22.3988 2.79389 23.1285 2.77467C24.3362 2.74904 25.0155 2.19154 25.3929 1.03169C25.6193 0.352438 26.2483 0.0128132 26.978 -2.82447e-06C27.7328 -0.0128189 28.3869 0.320398 28.6134 1.0381C28.9908 2.2428 29.7393 2.66573 30.9281 2.8003C32.3811 2.96691 32.9912 4.79319 31.9282 5.82488C31.0162 6.70919 30.5759 7.55505 30.9784 8.84306C31.1986 9.54794 30.8589 10.2208 30.2299 10.6565C29.6072 11.0859 28.8964 11.1628 28.2989 10.7206C27.3931 10.0478 26.6446 10.1247 25.7074 10.7206C24.4431 11.5152 22.9523 10.5476 22.9964 8.9584L23.0027 8.94559ZM30.6639 4.78679C30.6199 4.7227 30.5759 4.65862 30.5381 4.59454C29.9909 4.49842 29.45 4.36386 28.8964 4.30618C28.324 4.24851 27.9655 3.96656 27.7516 3.43469C27.5441 2.92205 27.2925 2.42864 27.022 1.83269C26.7075 2.48631 26.4433 3.01176 26.2106 3.55004C26.0093 4.00501 25.6885 4.2357 25.2042 4.29337C24.6381 4.36386 24.0783 4.46638 23.4052 4.57532C23.8581 5.06233 24.2104 5.49808 24.6255 5.87615C25.1035 6.31189 25.2042 6.81172 25.0721 7.42689C24.9589 7.96516 24.896 8.50984 24.7953 9.12501C25.3237 8.84306 25.8017 8.62519 26.242 8.34323C26.783 7.99079 27.2736 8.01002 27.802 8.36246C28.2171 8.638 28.67 8.84947 29.1858 9.13783C29.0788 8.3945 28.9971 7.7601 28.9027 7.12571C28.8335 6.68356 28.9405 6.31189 29.2801 6.01712C29.7456 5.60701 30.2048 5.1969 30.6639 4.78679Z" fill="#333CDF"/>
<path d="M11.19 9.88757C11.7687 8.82384 11.1271 8.00361 10.3031 7.10649C9.40361 6.12607 10.0578 4.4728 11.385 4.34464C12.4165 4.24852 12.9826 3.8384 13.316 2.85798C13.5425 2.17873 14.1337 1.8327 14.8508 1.8327C15.5867 1.8327 16.2031 2.17873 16.417 2.88361C16.7252 3.87685 17.3291 4.21648 18.3166 4.33182C19.757 4.50484 20.3546 6.22859 19.3041 7.24747C18.4801 8.04206 18.26 8.80462 18.5053 9.91961C18.7946 11.2461 17.3228 12.3995 16.1717 11.7267C15.2219 11.1756 14.5174 11.1628 13.5739 11.7267C12.4669 12.3803 11.1648 11.4127 11.19 9.88757ZM13.0204 9.91961C13.6683 9.62484 14.2532 9.15706 14.8382 9.15065C15.4421 9.15065 16.0459 9.61203 16.6938 9.88757C16.6309 9.46464 16.5868 9.06094 16.4988 8.66364C16.3667 8.05488 16.4485 7.54865 16.9454 7.11931C17.2725 6.83736 17.5492 6.49132 17.914 6.10043C17.3605 6.01713 16.9139 5.94023 16.4673 5.87615C15.9956 5.81207 15.6622 5.58779 15.4735 5.12001C15.2911 4.67145 15.0646 4.2357 14.8634 3.79996C14.8193 3.77432 14.7753 3.74869 14.7313 3.72306C14.5111 5.47886 13.4733 6.17092 11.8001 6.02354C11.7812 6.11325 11.7561 6.20296 11.7372 6.29908C12.1146 6.61308 12.4983 6.92707 12.8694 7.25388C13.2342 7.57428 13.3538 7.96517 13.2468 8.45858C13.1462 8.92637 13.0959 9.40697 13.0141 9.92602L13.0204 9.91961Z" fill="#333CDF"/>
<path d="M44.2253 6.14529C43.9737 6.57463 43.8038 7.10649 43.4516 7.41408C42.7283 8.04206 42.4892 8.7085 42.7723 9.65688C42.9924 10.3938 42.7723 11.0859 42.1307 11.5601C41.4702 12.0471 40.7532 12.0471 40.1179 11.5729C39.4448 11.0731 38.8662 11.0795 38.1994 11.5729C37.583 12.0278 36.8785 12.0535 36.2306 11.5921C35.5702 11.1179 35.3249 10.4451 35.545 9.66329C35.8029 8.74694 35.6268 8.03566 34.8657 7.42689C34.2493 6.93348 34.048 6.22219 34.331 5.44682C34.6078 4.69708 35.1802 4.29337 35.9539 4.29337C36.8596 4.29337 37.2496 3.78073 37.5578 2.99895C37.9541 1.9993 38.8536 1.58278 39.7216 1.94804C40.0676 2.09542 40.3632 2.42223 40.6337 2.71059C40.7846 2.87079 40.8727 3.10789 40.9356 3.32576C41.1117 3.92812 41.4577 4.24852 42.1055 4.22929C42.3634 4.22289 42.6276 4.30619 42.8792 4.38309C43.634 4.61377 44.1058 5.2738 44.0995 6.06839C44.1435 6.09403 44.1875 6.11966 44.2316 6.1517L44.2253 6.14529ZM37.3628 9.95165C37.7277 9.74659 38.0736 9.58639 38.3944 9.37493C38.9102 9.0289 39.4008 9.02249 39.9166 9.37493C40.2374 9.5928 40.5896 9.75941 41.0048 9.98369C40.923 9.41979 40.8916 8.96482 40.7846 8.54189C40.6462 7.98439 40.8035 7.56787 41.1935 7.1962C41.5269 6.8758 41.8351 6.52336 42.225 6.11966C41.6967 6.03635 41.2815 5.95305 40.8664 5.90819C40.3317 5.85052 39.9481 5.61983 39.7468 5.08156C39.5958 4.67145 39.3819 4.28697 39.1995 3.89608C39.1492 3.85122 39.0926 3.79996 39.0423 3.7551C38.8158 5.53653 37.7465 6.17092 36.086 6.03635C36.6458 6.7092 37.2874 7.18339 37.4824 7.80497C37.6773 8.42654 37.4257 9.20191 37.3628 9.96447V9.95165Z" fill="#333CDF"/>
<path d="M1.15106 12.9186C1.15736 12.8224 1.13848 12.6622 1.18881 12.5341C1.50331 11.7139 1.18881 11.1307 0.572381 10.5925C0.0503078 10.1439 -0.119523 9.52872 0.106918 8.84306C0.33336 8.17022 0.811403 7.79856 1.49702 7.70244C1.53476 7.70244 1.56621 7.68321 1.59766 7.68321C2.3273 7.70243 2.73616 7.34359 2.9626 6.6387C3.20162 5.90819 3.75514 5.49808 4.52253 5.49808C5.28991 5.49808 5.82456 5.93382 6.06988 6.65793C6.29632 7.33077 6.68001 7.65117 7.39079 7.68321C8.13301 7.71525 8.69911 8.10614 8.91927 8.86229C9.13313 9.58639 8.91927 10.2272 8.35945 10.695C7.78077 11.1756 7.59207 11.7203 7.80593 12.47C8.01979 13.2261 7.8248 13.9054 7.17063 14.3604C6.51647 14.8217 5.8057 14.7641 5.20814 14.2899C4.58543 13.79 4.13254 14.1297 3.60418 14.418C2.41536 15.0588 1.13219 14.2899 1.14478 12.925L1.15106 12.9186ZM7.00709 9.47746C5.65473 9.5159 4.84332 8.91996 4.49737 7.58068C4.20802 8.99045 3.30855 9.47745 2.00651 9.50309C3.18275 10.2913 3.44693 11.323 3.01921 12.6558C4.04448 11.7331 5.01315 11.8356 6.03214 12.6558C5.52893 11.3166 5.88118 10.3105 7.0008 9.48386L7.00709 9.47746Z" fill="#333CDF"/>
<path d="M23.3989 31.1558C23.1159 31.1558 22.8391 31.1558 22.5561 31.1558C21.4805 31.1366 20.7446 30.3996 20.7068 29.3039C20.6879 28.7143 20.6879 28.1248 20.7068 27.5352C20.7446 26.4138 21.4868 25.6833 22.6001 25.6705C23.1599 25.6641 23.726 25.6577 24.2858 25.6705C25.3174 25.6897 26.0408 26.3882 26.0911 27.4455C26.1225 28.0735 26.1162 28.7015 26.0911 29.3231C26.0533 30.4381 25.33 31.143 24.2355 31.1622C23.9525 31.1622 23.6757 31.1622 23.3927 31.1622L23.3989 31.1558ZM22.5246 29.2846H24.2733V27.5288H22.5246V29.2846Z" fill="#333CDF"/>
<path d="M30.5948 31.1558C30.2991 31.1558 29.9972 31.1622 29.7016 31.1558C28.7015 31.1301 27.9781 30.4317 27.9278 29.4064C27.8963 28.7464 27.8963 28.0799 27.9278 27.4199C27.9781 26.3946 28.7015 25.6897 29.7016 25.6705C30.2991 25.6577 30.8967 25.6577 31.4942 25.6705C32.5132 25.6897 33.2555 26.401 33.3121 27.4455C33.3435 28.0863 33.3435 28.7335 33.3121 29.3743C33.2555 30.4381 32.5069 31.1366 31.4439 31.1558C31.1609 31.1558 30.8841 31.1558 30.6011 31.1558H30.5948ZM31.488 29.3039V27.5288H29.7519V29.3039H31.488Z" fill="#333CDF"/>
<path d="M23.3738 22.9023C23.0908 22.9023 22.814 22.9087 22.5309 22.9023C21.4805 22.8702 20.7509 22.1525 20.7068 21.076C20.6817 20.4672 20.6817 19.8584 20.7068 19.2497C20.7446 18.1795 21.4805 17.4362 22.5184 17.4106C23.1159 17.3914 23.7135 17.3914 24.311 17.4106C25.3363 17.4426 26.0471 18.1603 26.0911 19.2176C26.1163 19.8456 26.1163 20.4736 26.0911 21.0952C26.0471 22.1846 25.3363 22.8702 24.2607 22.9023C23.9651 22.9087 23.6631 22.9023 23.3675 22.9023H23.3738ZM22.5184 21.0247H24.267V19.2753H22.5184V21.0247Z" fill="#333CDF"/>
<path d="M30.6136 22.8958C30.2614 22.8958 29.9092 22.9151 29.5632 22.8958C28.714 22.8446 28.0096 22.1974 27.9467 21.3451C27.8901 20.5633 27.8901 19.7687 27.9467 18.987C28.0096 18.1219 28.7329 17.4683 29.6198 17.4234C30.2677 17.3914 30.9219 17.3914 31.5697 17.4234C32.551 17.4683 33.2555 18.2052 33.3058 19.2305C33.3372 19.8584 33.3372 20.4864 33.3058 21.108C33.2555 22.1781 32.5258 22.8766 31.4628 22.9087C31.1797 22.9151 30.903 22.9087 30.6199 22.9087C30.6199 22.9087 30.6199 22.9087 30.6199 22.9023L30.6136 22.8958ZM29.7519 19.2689V21.0439H31.4754V19.2689H29.7519Z" fill="#333CDF"/>
<path d="M30.6199 39.4157C30.3557 39.4157 30.0915 39.4157 29.8274 39.4157C28.67 39.4029 27.9403 38.6916 27.9089 37.5253C27.89 36.9166 27.8837 36.3078 27.9089 35.6991C27.9592 34.6417 28.67 33.9497 29.7079 33.924C30.2865 33.9112 30.8652 33.9112 31.4439 33.924C32.5006 33.9433 33.2429 34.6546 33.2869 35.7183C33.3183 36.3463 33.3183 36.9743 33.2869 37.5958C33.2366 38.666 32.4943 39.3837 31.4439 39.4093C31.1609 39.4157 30.8841 39.4093 30.601 39.4093L30.6199 39.4157ZM31.4879 35.7888H29.7582V37.5574H31.4879V35.7888Z" fill="#333CDF"/>
<path d="M23.4304 33.924C23.726 33.924 24.0279 33.9176 24.3236 33.924C25.33 33.9561 26.0408 34.6481 26.0911 35.6798C26.1225 36.3399 26.1225 37.0063 26.0911 37.6663C26.0408 38.6852 25.3174 39.3837 24.311 39.4157C23.7323 39.4349 23.1536 39.4285 22.5749 39.4157C21.4994 39.3965 20.7508 38.6596 20.7131 37.5702C20.6879 36.9807 20.6942 36.3911 20.7131 35.8016C20.7445 34.6738 21.4805 33.9497 22.5938 33.9304C22.8769 33.9304 23.1536 33.9304 23.4367 33.9304L23.4304 33.924ZM24.2607 37.5702V35.7888H22.5435V37.5702H24.2607Z" fill="#333CDF"/>
<path d="M42.3068 32.9885C41.7092 32.9885 41.1117 33.0013 40.5204 32.9885C39.4763 32.9692 38.7341 32.2195 38.7152 31.1622C38.7026 30.5342 38.7026 29.9126 38.7152 29.2846C38.7403 28.2914 39.4826 27.5224 40.4638 27.5032C41.6904 27.4776 42.9169 27.484 44.1435 27.5032C45.1247 27.5224 45.8607 28.2786 45.8921 29.2782C45.911 29.9382 45.911 30.5983 45.8921 31.2583C45.8607 32.2067 45.1373 32.9436 44.2064 32.9756C43.5774 33.0013 42.9421 32.9756 42.3131 32.9756L42.3068 32.9885ZM40.5141 31.1237H44.0554V29.3743H40.5141V31.1237Z" fill="#333CDF"/>
<path d="M42.3257 20.1724C42.9232 20.1724 43.5208 20.1596 44.112 20.1724C45.131 20.1981 45.8607 20.935 45.8858 21.9731C45.8984 22.6011 45.8984 23.2226 45.8858 23.8506C45.8607 24.8567 45.1499 25.6321 44.1687 25.6577C42.9232 25.6897 41.6778 25.6897 40.4324 25.6577C39.4574 25.6321 38.7341 24.8503 38.7089 23.8506C38.6963 23.2226 38.6963 22.6011 38.7089 21.9731C38.7341 20.9414 39.4637 20.1981 40.4827 20.1724C41.0991 20.1596 41.7092 20.1724 42.3257 20.1724ZM40.5141 23.793H44.0554V22.05H40.5141V23.793Z" fill="#333CDF"/>
<path d="M42.3068 40.3257C41.7281 40.3257 41.1494 40.3385 40.5708 40.3257C39.4197 40.2936 38.7215 39.5567 38.7089 38.3904C38.7089 37.8393 38.7026 37.2818 38.7089 36.7308C38.7215 35.6606 39.4197 34.8724 40.4575 34.8404C41.6841 34.8019 42.9107 34.8019 44.1372 34.8404C45.1625 34.8724 45.867 35.635 45.8858 36.6731C45.8984 37.2818 45.8984 37.8906 45.8858 38.493C45.867 39.5439 45.1751 40.2744 44.1435 40.3192C43.5334 40.3513 42.9169 40.3192 42.3005 40.3192L42.3068 40.3257ZM44.068 36.6923H40.5267V38.4545H44.068V36.6923Z" fill="#333CDF"/>
<path d="M11.6995 32.9885C11.0831 32.9885 10.4729 33.0013 9.8565 32.9885C8.87525 32.9564 8.14561 32.2131 8.12045 31.207C8.10158 30.5662 8.10158 29.919 8.12045 29.2782C8.1519 28.285 8.88783 27.5288 9.87537 27.5096C11.1019 27.4904 12.3285 27.484 13.555 27.5096C14.53 27.5288 15.2659 28.2978 15.2974 29.2974C15.3163 29.9383 15.3163 30.5855 15.2974 31.2263C15.2659 32.2259 14.5237 32.9628 13.5425 32.9885C12.9323 33.0077 12.3159 32.9885 11.6995 32.9885ZM13.4859 29.3615H9.96343V31.1301H13.4859V29.3615Z" fill="#333CDF"/>
<path d="M11.7184 40.3257C11.1208 40.3257 10.5232 40.3449 9.93198 40.3257C8.83751 40.2872 8.14561 39.5567 8.12674 38.4481C8.12045 37.8586 8.11416 37.269 8.12674 36.6795C8.14561 35.6414 8.8438 34.8724 9.86908 34.8404C11.0956 34.8019 12.3222 34.8019 13.5488 34.8404C14.5929 34.8724 15.2911 35.6542 15.3037 36.7243C15.31 37.3331 15.3163 37.9419 15.3037 38.5442C15.2785 39.5054 14.6055 40.2488 13.662 40.3064C13.0141 40.3513 12.3662 40.3128 11.7184 40.3128V40.3257ZM13.4859 36.6923H9.96343V38.4609H13.4859V36.6923Z" fill="#333CDF"/>
<path d="M11.7435 20.1724C12.3411 20.1724 12.9386 20.1596 13.5299 20.1724C14.5489 20.1981 15.2785 20.9414 15.3037 21.9731C15.3162 22.6011 15.3162 23.2226 15.3037 23.8506C15.2785 24.8503 14.5552 25.6256 13.5739 25.6513C12.3285 25.6833 11.0831 25.6833 9.83762 25.6513C8.88154 25.6256 8.15189 24.8631 8.12673 23.8955C8.10786 23.2355 8.10786 22.5754 8.12673 21.9154C8.15818 20.9414 8.88154 20.2109 9.84391 20.1788C10.4729 20.1596 11.1082 20.1788 11.7372 20.1788L11.7435 20.1724ZM9.95084 22.0308V23.793H13.467V22.0308H9.95084Z" fill="#333CDF"/>
</g>
<defs>
<clipPath id="clip0_2022_36">
<rect width="54" height="55" fill="white"/>
</clipPath>
</defs>
</svg>
