<svg width="55" height="55" viewBox="0 0 55 55" fill="none" xmlns="http://www.w3.org/2000/svg">
<g clip-path="url(#clip0_10_101)">
<path d="M0 41.9982C0.316369 41.7998 0.61129 41.5155 0.95447 41.419C1.62474 41.2312 2.31647 41.1239 3.00819 41.0435C3.44789 40.9899 3.59267 40.8075 3.61948 40.3677C3.75353 38.0291 3.91976 35.6851 4.07527 33.3465C4.34874 29.2915 4.62221 25.2365 4.89568 21.1869C4.94394 20.4359 4.9922 19.685 5.04582 18.9341C5.08872 18.3011 5.36219 18.0437 6.00029 18.0276C6.23087 18.0276 6.4668 18.0222 6.69738 18.0276C7.22287 18.0437 7.58214 18.3172 7.59823 18.7517C7.61967 19.2344 7.35156 19.5187 6.89042 19.6206C6.80462 19.6421 6.71883 19.6582 6.60622 19.6796C6.5097 21.1386 6.41318 22.5814 6.3113 24.0726H11.518C11.4215 22.5922 11.3249 21.1332 11.2284 19.6528C11.0247 19.6421 10.8692 19.6421 10.7083 19.626C10.2096 19.5777 9.87716 19.2398 9.88788 18.8C9.89861 18.3601 10.2364 18.0383 10.7405 18.0222C11.1319 18.0061 11.5287 18.0061 11.9202 18.0222C12.4617 18.0383 12.7406 18.3065 12.7781 18.8483C12.9604 21.4389 13.132 24.0243 13.309 26.615C13.502 29.506 13.695 32.4025 13.8881 35.2935C13.8988 35.4866 13.9363 35.6797 13.9685 35.9426C15.4377 35.6636 16.8855 35.3847 18.3601 35.1058C18.4674 33.561 18.5746 32.0485 18.6765 30.5305C18.9875 25.907 19.2985 21.278 19.6095 16.6545C19.6363 16.279 19.6363 15.9035 19.6739 15.5281C19.7329 14.9113 19.9956 14.6377 20.5962 14.6377C22.5641 14.627 24.532 14.627 26.5053 14.6377C27.1112 14.6377 27.3686 14.8898 27.4169 15.5281C27.5563 17.3464 27.6743 19.1701 27.7976 20.9938C27.996 23.9599 28.1944 26.9207 28.3714 29.8869C28.3874 30.1658 28.3285 30.5252 28.1622 30.7236C28.0174 30.8953 27.6153 31.024 27.4169 30.9489C27.1702 30.8523 26.8699 30.5412 26.8378 30.2945C26.7091 29.3934 26.6715 28.4762 26.6233 27.5644C26.5697 26.6632 26.5804 26.6632 25.7063 26.6632C24.1299 26.6632 22.5534 26.6632 20.9823 26.6632C20.6981 26.6632 20.5211 26.6954 20.4997 27.0548C20.3495 29.5758 20.1726 32.0914 20.0117 34.6123C20.0117 34.6445 20.0278 34.6767 20.06 34.784C23.7491 34.076 27.4383 33.368 31.1919 32.6492V32.0002C31.1919 29.3129 31.1919 26.6311 31.1919 23.9438C31.1919 22.8818 31.3903 22.678 32.4359 22.678C36.6238 22.678 40.8116 22.6726 44.9995 22.6887C45.4392 22.6887 45.6162 22.56 45.7395 22.147C46.1792 20.6558 46.6618 19.1754 47.1337 17.695C47.3535 17.0031 47.5412 16.8637 48.249 16.8637C50.1472 16.8637 52.0454 16.8637 53.9436 16.8637C54.7051 16.8637 54.9785 17.1372 54.9785 17.8989C54.9785 27.6931 54.9785 37.4873 54.9785 47.2815C54.9785 47.9413 54.6675 48.3275 54.1581 48.3168C53.6541 48.306 53.3699 47.9252 53.3699 47.2494C53.3699 39.8366 53.3699 32.4239 53.3699 25.0112V24.33H32.8595V53.3372H39.2083C39.2083 53.1334 39.2083 52.9403 39.2083 52.7472C39.2083 50.886 39.2083 49.0248 39.2083 47.1582C39.2083 46.3268 39.4657 46.064 40.2969 46.064C42.1415 46.064 43.9861 46.064 45.8253 46.064C46.71 46.064 46.946 46.2946 46.946 47.1689C46.946 49.014 46.946 50.8592 46.946 52.6989C46.946 52.892 46.946 53.0905 46.946 53.3265H53.3645C53.3645 52.7097 53.3645 52.0714 53.3645 51.4385C53.3645 50.768 53.6648 50.3872 54.1742 50.3872C54.6783 50.3872 54.9732 50.7734 54.9785 51.4438C54.9785 52.2323 54.9571 53.0208 54.9893 53.8092C55.0107 54.3188 54.8767 54.7157 54.4423 54.9946H0C0 50.6607 0 46.3268 0 41.9929V41.9982ZM31.1704 34.3066C30.4841 34.4407 29.8567 34.5641 29.2293 34.6821C22.859 35.905 16.4834 37.1279 10.1077 38.3348C9.80745 38.3938 9.72701 38.5118 9.73238 38.7907C9.7431 39.3807 9.7431 39.9707 9.73238 40.5608C9.72165 41.2259 9.53398 41.4619 8.87979 41.5799C6.61158 42.0036 4.34874 42.4327 2.07517 42.8243C1.66764 42.894 1.6033 43.0495 1.6033 43.4143C1.61402 46.5843 1.60866 49.7542 1.61402 52.9242C1.61402 53.0637 1.63011 53.1978 1.64619 53.3533H31.1758V34.3012L31.1704 34.3066ZM5.20669 40.6305C6.13971 40.4642 6.97085 40.3301 7.7859 40.1477C7.91996 40.1156 8.09691 39.8742 8.10763 39.724C8.14517 39.134 8.11836 38.544 8.12372 37.954C8.12908 37.2728 8.30067 37.0636 8.96022 36.9349C10.0756 36.7149 11.1909 36.495 12.3491 36.2697C12.2526 34.8591 12.1614 33.4913 12.0596 32.1182C12.0274 31.6784 12.1239 31.0454 11.8773 30.8523C11.5877 30.6217 10.9979 30.7504 10.5367 30.7504C9.00312 30.7451 7.46417 30.7504 5.86624 30.7504C5.64639 34.0438 5.42654 37.2996 5.20669 40.6412V40.6305ZM45.3212 47.7106H40.8599V53.3426H45.3212V47.7106ZM47.2784 22.6458H53.3431V18.505H48.5868C48.1525 19.8835 47.7235 21.2405 47.2784 22.6458ZM25.8726 16.2951H21.2557C21.1646 17.6414 21.0788 18.9502 20.993 20.275H26.1353C26.0495 18.9448 25.9584 17.6468 25.8726 16.2951ZM5.98421 29.0769H11.8612C11.7861 27.9452 11.711 26.8671 11.6413 25.7782H6.20405C6.12898 26.8939 6.05928 27.972 5.98957 29.0769H5.98421ZM26.4517 25.0273C26.382 23.9653 26.3123 22.9569 26.2479 21.9431H20.8696C20.8053 22.9783 20.7356 23.9814 20.6712 25.0273H26.4517Z" fill="#333CDF"/>
<path d="M25.8833 8.84484C25.8833 9.2954 25.8887 9.78887 25.8833 10.2877C25.8565 11.6072 24.9235 12.5083 23.5776 12.519C22.237 12.5297 21.2933 11.634 21.2557 10.3145C21.2557 10.2609 21.2557 10.2072 21.2557 10.1536C21.2557 9.74059 21.3951 9.2364 21.2021 8.94676C21.0359 8.69466 20.4997 8.69466 20.1297 8.57666C18.7141 8.11537 17.8454 6.60279 18.0652 4.97221C18.2743 3.40599 19.4004 2.36006 20.9876 2.27424C21.5024 2.24742 22.0279 2.28497 22.5427 2.24742C22.7089 2.23669 22.9448 2.10796 23.0145 1.96314C23.6741 0.649019 24.7358 0.00536728 26.1943 3.52249e-06C27.6582 3.52249e-06 29.1274 -0.00536024 30.5913 3.52249e-06C33.0418 0.010731 34.5164 2.07578 33.7389 4.40365C33.3314 5.63195 32.3608 6.38288 31.0739 6.45261C30.5216 6.47943 29.9639 6.45261 29.4116 6.48479C29.2615 6.49015 29.0416 6.58134 28.988 6.69398C28.3928 7.99201 27.3686 8.64639 25.9691 8.75902C25.953 8.75902 25.9423 8.78048 25.8779 8.83948L25.8833 8.84484ZM22.355 3.87264V3.88337C21.926 3.88337 21.497 3.85655 21.0681 3.88873C20.3495 3.94237 19.7972 4.39829 19.6042 5.04194C19.4272 5.64268 19.6417 6.38288 20.1994 6.75298C20.4943 6.95144 20.8804 7.05871 21.2343 7.11235C22.2638 7.2679 22.8376 7.86864 22.8537 8.90385C22.859 9.34904 22.8537 9.79959 22.8537 10.2448C22.859 10.7007 23.111 10.9474 23.5561 10.9474C24.0012 10.9474 24.2478 10.6953 24.2639 10.2448C24.2746 9.86932 24.2639 9.49386 24.2639 9.1184C24.2639 7.82573 24.768 7.26254 26.0495 7.10699C26.8699 7.01044 27.3847 6.54916 27.5617 5.74459C27.7225 5.02048 27.9156 4.8703 28.6609 4.85957C29.4116 4.85421 30.1623 4.85957 30.913 4.84348C31.5458 4.82739 31.9908 4.51093 32.2321 3.92091C32.6986 2.77843 31.9694 1.63059 30.7468 1.6145C29.2293 1.59304 27.7064 1.60377 26.1889 1.6145C25.1487 1.6145 24.5856 2.09187 24.3658 3.12708C24.2639 3.61518 23.9797 3.87264 23.4703 3.86727C23.095 3.86727 22.7196 3.86727 22.3443 3.86727L22.355 3.87264Z" fill="#333CDF"/>
<path d="M11.2553 12.4225C11.2553 12.9588 11.266 13.4255 11.2553 13.8868C11.2177 15.2653 10.3061 16.1664 8.94415 16.1825C7.59287 16.1986 6.59014 15.3082 6.62768 13.9243C6.65449 12.9374 6.5687 12.3259 5.38365 12.1221C4.41846 11.9558 3.81789 11.1298 3.43718 10.1965C3.35674 9.99805 3.1637 9.78886 2.9653 9.69768C1.47461 8.99503 0.686371 7.53609 0.959843 5.92159C1.21187 4.43047 2.50952 3.28262 4.09136 3.14317C5.58741 3.00907 7.04593 3.98528 7.54461 5.49786C7.65186 5.82505 7.78591 5.93769 8.13446 5.93232C9.16936 5.9055 10.2096 5.91623 11.2445 5.92696C12.5529 5.93768 13.5878 6.45261 14.1294 7.69163C14.6871 8.96821 14.5744 10.2126 13.7165 11.3336C13.2661 11.929 12.628 12.2455 11.888 12.3527C11.695 12.3796 11.5019 12.3957 11.2499 12.4225H11.2553ZM12.8961 9.17203C12.8961 8.17974 12.2633 7.54681 11.2338 7.53609C9.92543 7.52536 8.62242 7.53609 7.31404 7.53609C6.3703 7.53609 6.20407 7.38054 6.11827 6.43651C6.02175 5.37985 5.07264 4.60747 4.08064 4.76302C3.19588 4.90248 2.55778 5.59977 2.50952 6.47942C2.46662 7.34299 3.07255 8.13146 3.99484 8.31919C4.48816 8.42111 4.8099 8.60884 4.89569 9.14521C5.06728 10.2448 5.51234 10.6524 6.65985 10.7973C7.61969 10.9206 8.17199 11.5106 8.20416 12.4707C8.21489 12.8301 8.20416 13.1841 8.20416 13.5435C8.20416 14.3159 8.41329 14.6162 8.93878 14.6109C9.44283 14.6002 9.64123 14.3105 9.64659 13.5703C9.64659 13.3397 9.64659 13.1037 9.64659 12.873C9.64659 11.4409 10.0809 10.9528 11.5019 10.7758C12.3867 10.6685 12.9014 10.0731 12.9014 9.17203H12.8961Z" fill="#333CDF"/>
<path d="M43.0638 31.8232C40.935 31.8232 38.8062 31.8232 36.6774 31.8232C35.8945 31.8232 35.6425 31.5711 35.6371 30.8094C35.6371 29.9351 35.6318 29.0555 35.6371 28.1812C35.6371 27.4785 35.916 27.1889 36.6023 27.1889C40.9296 27.1889 45.2623 27.1889 49.5895 27.1889C50.2652 27.1889 50.5547 27.4946 50.5601 28.1866C50.5708 29.0609 50.5708 29.9405 50.5601 30.8148C50.5547 31.5443 50.2813 31.8232 49.552 31.8232C47.3857 31.8232 45.2247 31.8232 43.0584 31.8232H43.0638ZM37.2887 28.8195V30.1604H48.9246V28.8195H37.2887Z" fill="#333CDF"/>
<path d="M38.9617 38.0612C38.1735 38.0612 37.3906 38.0666 36.6023 38.0612C35.9213 38.0559 35.6479 37.793 35.6425 37.1279C35.6318 36.2 35.6318 35.2667 35.6425 34.3388C35.6479 33.7166 35.9374 33.4216 36.5702 33.4162C38.1627 33.4055 39.7499 33.4055 41.3425 33.4162C41.986 33.4162 42.2809 33.7327 42.2916 34.3871C42.3023 35.2828 42.3023 36.1732 42.2916 37.0689C42.2863 37.7716 42.0074 38.0505 41.3211 38.0559C40.5328 38.0666 39.7499 38.0559 38.9617 38.0559V38.0612ZM40.6562 35.0629H37.2887V36.4038H40.6562V35.0629Z" fill="#333CDF"/>
<path d="M47.2248 38.0612C46.4205 38.0612 45.6162 38.072 44.8118 38.0612C44.2059 38.0505 43.9217 37.7716 43.9163 37.1762C43.9056 36.2268 43.9056 35.2828 43.9163 34.3334C43.9217 33.7381 44.2113 33.4323 44.8011 33.427C46.4258 33.4162 48.056 33.4162 49.6807 33.427C50.233 33.427 50.5494 33.7434 50.5601 34.2959C50.5815 35.2614 50.5815 36.2268 50.5601 37.1923C50.5494 37.777 50.2437 38.0505 49.6324 38.0612C48.8281 38.072 48.0238 38.0612 47.2194 38.0612H47.2248ZM48.93 35.0629H45.5625V36.3985H48.93V35.0629Z" fill="#333CDF"/>
<path d="M38.9402 44.3047C38.152 44.3047 37.3691 44.3154 36.5809 44.3047C35.9106 44.2939 35.6478 44.0204 35.6425 43.3499C35.6371 42.4381 35.6318 41.5262 35.6425 40.6144C35.6478 39.9546 35.932 39.665 36.5916 39.6596C38.1627 39.6489 39.7392 39.6489 41.3103 39.6596C41.9913 39.6596 42.2862 39.9654 42.2916 40.6573C42.3023 41.553 42.3023 42.4434 42.2916 43.3392C42.2809 44.0257 41.9967 44.2993 41.2996 44.31C40.5114 44.3207 39.7285 44.31 38.9402 44.31V44.3047ZM40.6561 41.2956H37.2833V42.6419H40.6561V41.2956Z" fill="#333CDF"/>
<path d="M47.2248 44.3047C46.4366 44.3047 45.6537 44.3154 44.8655 44.3047C44.1898 44.2939 43.9217 44.0257 43.9163 43.3606C43.911 42.4327 43.9056 41.4994 43.9163 40.5715C43.9217 39.9761 44.2113 39.6704 44.8011 39.665C46.4259 39.6489 48.056 39.6489 49.6807 39.665C50.2384 39.6704 50.5494 39.9868 50.5601 40.5393C50.5816 41.5048 50.5816 42.4703 50.5601 43.4357C50.5494 43.9989 50.2545 44.2939 49.6861 44.3047C48.8657 44.3208 48.0399 44.3047 47.2195 44.3047H47.2248ZM45.5465 42.6526H48.9246V41.301H45.5465V42.6526Z" fill="#333CDF"/>
<path d="M16.8266 47.3245C13.25 47.3245 9.6734 47.3245 6.09682 47.3245C5.2335 47.3245 4.8367 47.0616 4.84206 46.5038C4.84743 45.946 5.22278 45.7153 6.1129 45.7153C13.2875 45.7153 20.4568 45.7153 27.6314 45.7153C28.4625 45.7153 28.8486 45.9621 28.8647 46.4984C28.8808 47.0509 28.4625 47.3298 27.6153 47.3298C24.0226 47.3298 20.4246 47.3298 16.8319 47.3298L16.8266 47.3245Z" fill="#333CDF"/>
<path d="M12.9658 41.6013C12.9658 41.1561 12.955 40.7056 12.9658 40.2604C12.9872 39.7133 13.2607 39.429 13.7969 39.4183C14.7085 39.4022 15.6201 39.4075 16.5316 39.4183C17.0518 39.4236 17.3413 39.7294 17.352 40.2228C17.3789 41.1508 17.3789 42.0841 17.352 43.012C17.336 43.5108 17.0196 43.8058 16.5155 43.8166C15.604 43.8326 14.6924 43.838 13.7808 43.8166C13.2553 43.8058 12.9819 43.4947 12.9658 42.9476C12.9497 42.5024 12.9658 42.0519 12.9658 41.6067V41.6013ZM14.6173 41.0489V42.1752H15.7219V41.0489H14.6173Z" fill="#333CDF"/>
<path d="M23.1057 41.6174C23.1057 42.0626 23.1164 42.5132 23.1057 42.9584C23.0896 43.4894 22.8054 43.8005 22.2745 43.8112C21.363 43.8327 20.4514 43.8327 19.5398 43.8112C19.025 43.8005 18.7248 43.4786 18.714 42.9423C18.698 42.0465 18.6926 41.1508 18.714 40.2604C18.7248 39.7079 19.0358 39.4236 19.6095 39.4183C20.4836 39.4076 21.363 39.4076 22.237 39.4183C22.8054 39.429 23.0896 39.7133 23.1057 40.2765C23.1164 40.7217 23.1057 41.1722 23.1057 41.6174ZM20.3441 41.0489V42.1645H21.4488V41.0489H20.3441Z" fill="#333CDF"/>
<path d="M26.6715 39.4076C27.1005 39.4076 27.5295 39.3968 27.9585 39.4076C28.5376 39.4236 28.8486 39.6865 28.8647 40.2443C28.8915 41.1561 28.8915 42.068 28.8647 42.9798C28.8486 43.5001 28.5269 43.7951 27.996 43.8058C27.1005 43.8219 26.205 43.8273 25.3149 43.8058C24.7787 43.7951 24.4891 43.4894 24.4784 42.9637C24.4623 42.068 24.4623 41.1722 24.4784 40.2818C24.4891 39.7079 24.7733 39.429 25.3364 39.4129C25.7814 39.3968 26.2318 39.4129 26.6769 39.4129L26.6715 39.4076ZM27.2185 42.1753V41.0489H26.1139V42.1753H27.2185Z" fill="#333CDF"/>
</g>
<defs>
<clipPath id="clip0_10_101">
<rect width="55" height="55" fill="white"/>
</clipPath>
</defs>
</svg>
