<svg width="26" height="26" viewBox="0 0 26 26" fill="none" xmlns="http://www.w3.org/2000/svg">
<g clip-path="url(#clip0_12_415)">
<path d="M3.02331e-06 12.9831C0.00484383 5.8149 5.83802 -0.00483869 13.0097 3.01885e-06C20.1934 0.00484473 26.0145 5.84395 26 13.0291C25.9855 20.1996 20.1499 26.0121 12.9782 26C5.80414 25.9855 -0.00483779 20.1585 3.02331e-06 12.9831ZM4.9933 12.9855H4.97152C4.97152 13.9732 4.96426 14.9609 4.97394 15.9486C4.97878 16.319 4.9933 16.6942 5.05139 17.0622C5.29101 18.6067 6.02923 19.805 7.49358 20.4708C8.22938 20.8048 9.01359 20.9428 9.81717 20.9477C11.8455 20.9574 13.8714 20.9574 15.8997 20.9477C16.3402 20.9477 16.7855 20.921 17.2188 20.8484C18.8574 20.5773 20.0724 19.7421 20.68 18.1443C20.9293 17.4907 21.0333 16.8056 21.0333 16.1084C21.0333 14.0991 21.0382 12.0873 21.0309 10.078C21.0309 9.69796 21.0115 9.31304 20.9535 8.94023C20.6969 7.2892 19.874 6.05699 18.2741 5.43241C17.623 5.17822 16.938 5.06201 16.2409 5.05717C14.0843 5.04749 11.9253 5.04265 9.76876 5.05717C8.88531 5.06444 8.02849 5.2339 7.24186 5.65755C5.76057 6.45159 5.10948 7.77579 5.01266 9.37598C4.94005 10.5743 4.99814 11.7823 4.99814 12.9879L4.9933 12.9855Z" fill="#333CDF"/>
<path d="M13 6.55566C14.0649 6.55566 15.1323 6.54597 16.1973 6.5605C16.541 6.56534 16.892 6.6065 17.226 6.68154C18.5088 6.97204 19.3438 7.91618 19.4963 9.23312C19.5302 9.52363 19.5472 9.81897 19.5496 10.1143C19.5544 12.0897 19.5665 14.0652 19.5423 16.043C19.5351 16.5296 19.4624 17.0355 19.3075 17.4931C18.9082 18.6793 18.0102 19.316 16.7927 19.3838C15.28 19.4685 13.7624 19.4612 12.2472 19.4661C11.2427 19.4685 10.2359 19.4661 9.2338 19.391C7.69926 19.2797 6.67059 18.2436 6.49874 16.716C6.4697 16.4497 6.45034 16.181 6.45034 15.9123C6.44549 13.9102 6.43339 11.9082 6.46002 9.90612C6.46486 9.4389 6.54473 8.95231 6.6948 8.50929C7.09416 7.32307 7.99455 6.70817 9.2096 6.61618C10.2625 6.53629 11.3226 6.55566 12.3779 6.53145C12.5861 6.52661 12.7942 6.53145 13.0024 6.53145C13.0024 6.54113 13.0024 6.54839 13.0024 6.55808L13 6.55566ZM12.9927 8.77558C10.6352 8.78285 8.76182 10.6735 8.77392 13.0314C8.78603 15.3652 10.6812 17.2341 13.0314 17.2244C15.3429 17.2171 17.2236 15.3313 17.2236 13.0193C17.2236 10.6566 15.3405 8.7659 12.9903 8.77316L12.9927 8.77558ZM17.2502 9.63499C17.7149 9.63499 18.0925 9.26218 18.0949 8.80221C18.0949 8.33741 17.7246 7.95975 17.2623 7.95491C16.7855 7.95007 16.4006 8.33015 16.4055 8.80221C16.4103 9.26944 16.7806 9.63499 17.2502 9.63499Z" fill="#333CDF"/>
<path d="M15.7254 13.0339C15.6939 14.5566 14.4668 15.7525 12.9661 15.7234C11.4485 15.6944 10.2432 14.4597 10.2747 12.9636C10.3061 11.4434 11.5357 10.245 13.0363 10.2741C14.5563 10.3031 15.7569 11.5329 15.7278 13.0339H15.7254Z" fill="#333CDF"/>
</g>
<defs>
<clipPath id="clip0_12_415">
<rect width="26" height="26" fill="white"/>
</clipPath>
</defs>
</svg>
