<svg width="26" height="26" viewBox="0 0 26 26" fill="none" xmlns="http://www.w3.org/2000/svg">
<g clip-path="url(#clip0_12_425)">
<path d="M12.1911 0C12.7336 0 13.2737 0 13.8161 0C13.9832 0.0217877 14.1479 0.0435754 14.315 0.0605214C17.054 0.358287 19.4927 1.3702 21.544 3.21248C24.9732 6.29181 26.448 10.1628 25.8789 14.7333C25.4357 18.292 23.7066 21.1801 20.8538 23.3516C18.013 25.5134 14.7824 26.3365 11.2491 25.879C8.64568 25.5425 6.35227 24.4773 4.39065 22.7318C2.14083 20.725 0.736215 18.2363 0.201006 15.2659C0.116244 14.7842 0.0653875 14.2976 0 13.811C0 13.2687 0 12.7289 0 12.1866C0.0193741 12.0196 0.0435917 11.8549 0.060544 11.6879C0.360842 8.93296 1.4022 6.5 3.24031 4.42291C5.26248 2.14004 7.77869 0.721415 10.7889 0.196089C11.2539 0.116201 11.7237 0.0653631 12.1911 0ZM14.1431 19.6428V19.3209C14.1431 18.0257 14.1431 16.733 14.1431 15.4378C14.1431 14.9633 14.1431 14.4912 14.1624 14.0168C14.1891 13.443 14.4773 13.0048 14.9374 12.6853C15.8504 12.051 17.0298 12.4553 17.3325 13.5205C17.4318 13.8715 17.4657 14.254 17.4681 14.622C17.4827 16.2028 17.4754 17.786 17.4754 19.3693C17.4754 19.4588 17.4754 19.5484 17.4754 19.638H20.6406C20.6406 19.5484 20.6406 19.4734 20.6406 19.3983C20.6406 17.6819 20.6455 15.9631 20.6382 14.2467C20.6382 13.8836 20.614 13.5205 20.568 13.1598C20.3379 11.3054 19.2263 10.141 17.4391 9.9352C16.1459 9.78752 15.0488 10.1773 14.2763 11.286C14.2496 11.3223 14.2157 11.3538 14.1382 11.441V10.1434H10.9924V19.6477H14.1431V19.6428ZM6.07377 10.1216V19.6356H9.22932V19.3209C9.22932 16.4788 9.22932 13.6343 9.22932 10.7922C9.22932 10.6493 9.21721 10.5041 9.23174 10.3613C9.25112 10.1652 9.1712 10.1192 8.98472 10.1216C8.17101 10.1313 7.35972 10.1264 6.54601 10.1264C6.39586 10.1264 6.24329 10.1264 6.07135 10.1264L6.07377 10.1216ZM5.87519 7.1851C5.87519 8.1486 6.61624 8.83613 7.64549 8.82886C8.682 8.8216 9.43759 8.13166 9.43517 7.18994C9.43275 6.22644 8.69411 5.5365 7.66729 5.53408C6.6114 5.53408 5.87276 6.21192 5.87519 7.18268V7.1851Z" fill="#333CDF"/>
</g>
<defs>
<clipPath id="clip0_12_425">
<rect width="26" height="26" fill="white"/>
</clipPath>
</defs>
</svg>
