<svg width="54" height="54" viewBox="0 0 54 54" fill="none" xmlns="http://www.w3.org/2000/svg">
<g clip-path="url(#clip0_11_114)">
<path d="M35.5453 0C36.2504 0 36.9503 0 37.6554 0C37.7372 0.0306528 37.8138 0.076632 37.8955 0.0868496C45.2223 1.13926 49.2126 8.828 45.8405 15.4286C45.6872 15.73 45.7383 15.9292 45.8865 16.1898C47.2609 18.5756 48.1805 21.1198 48.528 23.853C48.6966 25.1864 48.7425 26.5402 48.8447 27.9349C48.9367 27.9553 49.1053 28.0013 49.2688 28.0371C51.941 28.6348 53.9285 31.0462 53.9949 33.7845C54.0255 34.9953 53.7854 36.1601 53.0854 37.1359C51.4147 39.4757 49.6724 41.7695 47.9148 44.1349C46.8061 42.6585 45.7383 41.2382 44.6449 39.7822C44.5427 39.8997 44.4763 39.9764 44.4048 40.053C43.4442 41.1003 42.5041 42.168 41.518 43.1847C41.2575 43.4554 41.1808 43.67 41.2983 44.0072C41.8399 45.5449 41.8552 47.1389 41.799 48.743C41.7633 49.7852 41.0684 50.4851 40.0261 50.5107C39.413 50.526 38.7948 50.5311 38.1817 50.5107C37.8649 50.5005 37.6912 50.5873 37.5226 50.8785C35.1263 55.0371 29.3119 55.032 26.9208 50.8683C26.7675 50.6026 26.6091 50.5107 26.3128 50.5107C23.2881 50.5209 20.2685 50.5209 17.2438 50.5107C16.9526 50.5107 16.784 50.5873 16.6307 50.8581C14.2089 55.0524 8.46097 55.0422 5.98808 50.8581C5.891 50.6946 5.62532 50.5413 5.43117 50.5362C4.34289 50.5056 3.2495 50.4903 2.16123 50.5311C1.09339 50.572 0.367868 50.1633 0 49.1518V46.6229C0.250355 46.066 0.56713 45.5194 1.20068 45.4019C1.69117 45.3099 1.74737 45.08 1.74737 44.6611C1.73716 39.1998 1.73716 33.7334 1.74227 28.2721C1.74227 26.7446 2.35027 26.1468 3.88816 26.1468C4.33778 26.1468 4.7874 26.1468 5.25234 26.1468C5.43628 22.259 6.52966 18.7237 8.53761 15.4797C8.35367 15.2191 8.17996 14.979 8.01135 14.7338C7.35737 13.7631 7.00482 12.6903 6.97417 11.5203C6.90264 9.01703 8.35367 6.73851 10.6426 5.74229C12.9009 4.75118 15.522 5.23652 17.3205 6.99395C17.5861 7.25449 17.7752 7.31069 18.1277 7.15232C20.9685 5.88023 23.9523 5.24163 27.069 5.26717C27.4113 5.26717 27.5952 5.15989 27.7792 4.87379C29.0156 2.93245 30.7017 1.5122 32.868 0.720341C33.7315 0.393377 34.6511 0.229896 35.5453 0ZM36.5927 27.5211C36.4956 27.4087 36.4394 27.3474 36.3832 27.281C33.6702 23.8274 30.9316 20.3943 28.2543 16.9152C26.3741 14.4732 25.8121 11.6736 26.2924 8.6492C26.3792 8.10256 26.5478 7.56613 26.6807 7.01949C24.7443 6.80492 19.8598 7.93907 18.6591 8.87909C19.6299 11.3364 19.1292 13.523 17.5146 15.5665C16.1096 17.3444 14.7863 19.1835 13.4272 20.9972C13.3148 21.1453 13.1973 21.2884 13.0542 21.4672C11.9097 19.9396 10.801 18.4734 9.66676 16.9561C8.03179 19.8375 7.13767 22.8517 7.00993 26.1315C7.30627 26.1315 7.51575 26.1315 7.72523 26.1315C13.7337 26.1315 19.7474 26.1315 25.7559 26.1315C26.0369 26.1315 26.323 26.1264 26.5938 26.1928C27.35 26.3767 27.8507 27.046 27.8609 27.8685C27.8762 29.0078 27.8609 30.1419 27.8609 31.3374H28.4894C30.9163 31.3374 33.3381 31.3374 35.765 31.3374C37.405 31.3374 38.3145 32.0577 38.7079 33.6363C39.3159 36.0886 39.929 38.5408 40.5421 40.9879C40.5881 41.1667 40.6494 41.3404 40.7465 41.652C41.5436 40.7222 42.2793 39.8997 42.9691 39.0414C43.5464 38.3262 43.5209 38.3058 42.9946 37.565C40.4246 33.9377 42.2384 29.0691 46.5558 28.0422C46.9185 27.9553 47.0309 27.8072 47.036 27.4496C47.0769 24.9258 46.6937 22.4787 45.8047 20.1185C45.4573 19.1989 45.0281 18.3099 44.604 17.3239C41.8808 20.7877 39.2444 24.1391 36.5927 27.516V27.5211ZM19.1905 34.5099C18.2861 34.0604 17.4942 33.6619 16.692 33.2685C16.0636 32.962 15.43 32.4307 14.7965 32.4307C14.1629 32.4307 13.5345 32.9722 12.9009 33.2787C12.1039 33.6721 11.3119 34.0706 10.4332 34.5048V27.8992H3.5254V45.2742C4.16406 45.2742 4.76185 45.2537 5.35964 45.2844C5.70707 45.2997 5.88078 45.1771 6.0545 44.8757C8.43542 40.7784 14.2191 40.7835 16.6001 44.8859C16.7789 45.1924 16.9628 45.2895 17.3 45.2844C20.059 45.2691 22.8181 45.2793 25.5771 45.2742C25.7457 45.2742 25.9194 45.2588 26.1033 45.2486V27.8889H19.1905V34.5048V34.5099ZM36.562 24.6908C36.6795 24.5631 36.7766 24.4711 36.8635 24.3639C39.0553 21.5745 41.2575 18.7902 43.434 15.9905C44.65 14.4324 45.2376 12.6494 45.2887 10.6672C45.4471 4.03595 38.386 -0.347398 32.5257 2.74853C27.677 5.31315 26.3741 11.597 29.7769 16.0467C30.7272 17.2882 31.7031 18.5092 32.6739 19.7353C33.9614 21.3752 35.254 23.0151 36.5671 24.6857L36.562 24.6908ZM39.8166 45.2793C39.3875 43.5576 38.994 41.9381 38.57 40.3289C38.5393 40.2114 38.2634 40.0836 38.0999 40.0785C36.4649 40.0581 34.83 40.0785 33.195 40.0632C32.1016 40.0581 31.3863 39.3377 31.3557 38.2445C31.3403 37.754 31.3506 37.2585 31.3557 36.768C31.3659 35.547 32.071 34.8369 33.287 34.8267C34.2884 34.8165 35.2898 34.8267 36.2912 34.8267C36.5773 34.8267 36.8686 34.8267 37.1905 34.8267C37.1343 34.5815 37.1087 34.4282 37.0678 34.2749C36.7919 33.1714 36.6949 33.0999 35.5657 33.0999C33.195 33.0999 30.8192 33.0999 28.4485 33.0999C28.2645 33.0999 28.0806 33.1152 27.8916 33.1255V43.481C27.9376 43.4963 27.9529 43.5065 27.9682 43.5014C28.0142 43.481 28.0653 43.4554 28.101 43.4248C31.0287 40.7069 35.7241 41.5141 37.6043 45.0238C37.6656 45.1362 37.8342 45.2588 37.9569 45.264C38.5495 45.2895 39.1422 45.2742 39.8217 45.2742L39.8166 45.2793ZM13.0593 18.5807C14.2242 17.0327 15.3381 15.5512 16.4519 14.0645C16.6103 13.8551 16.7584 13.6354 16.8811 13.4055C17.908 11.5254 17.4175 9.19073 15.7162 7.87777C14.0352 6.58013 11.6798 6.68742 10.1113 8.13321C8.54272 9.58411 8.22594 11.9801 9.46239 13.7376C10.6018 15.357 11.8229 16.9203 13.0593 18.5807ZM47.8586 41.1565C47.9353 41.1207 47.9762 41.1156 47.9915 41.0952C49.1922 39.491 50.4184 37.9073 51.5782 36.2776C52.2679 35.3018 52.4263 34.1574 52.1351 32.9977C51.6702 31.1432 50.4593 30.0295 48.5893 29.677C46.9236 29.3603 45.1558 30.1828 44.231 31.6388C43.2807 33.1357 43.3165 35.0361 44.3639 36.4973C45.1098 37.5395 45.8967 38.551 46.6682 39.5779C47.0667 40.1092 47.4652 40.6405 47.8586 41.1616V41.1565ZM32.1629 52.2426C34.5592 52.2886 36.5518 50.3523 36.5876 47.9512C36.6182 45.6062 34.7022 43.6036 32.3724 43.5525C29.92 43.5014 27.9273 45.3866 27.8711 47.8184C27.8098 50.1939 29.7513 52.1966 32.1629 52.2426ZM11.2609 52.2477C13.6571 52.2886 15.6344 50.3676 15.6804 47.9512C15.7264 45.6216 13.79 43.6036 11.4601 43.5576C9.00766 43.5116 6.99972 45.4172 6.96395 47.8286C6.92819 50.2348 8.84417 52.2068 11.2609 52.2477ZM12.2367 27.8838V31.6592C12.9469 31.3067 13.6111 31.0104 14.2498 30.6528C14.6381 30.4331 14.9549 30.4127 15.3534 30.6426C16.0023 31.0104 16.6869 31.3169 17.3716 31.6541V27.8889H12.2367V27.8838ZM17.4022 48.7328H26.1442V47.0674H17.4022V48.7328ZM33.1337 36.6045V38.2751H38.0641C37.916 37.6927 37.7831 37.1512 37.6401 36.6045H33.1337ZM1.77803 47.0571V48.7277H5.24723V47.0571H1.77803ZM40.0517 47.0725H38.3145V48.7226H40.0517V47.0725Z" fill="#333CDF"/>
<path d="M29.6236 10.4424C29.6236 6.58524 32.7454 3.47909 36.6029 3.4842C40.44 3.48931 43.5669 6.64144 43.5566 10.4833C43.5413 14.3046 40.4195 17.4108 36.5927 17.4108C32.7301 17.4108 29.6236 14.3046 29.6287 10.4475L29.6236 10.4424ZM36.5876 5.23652C33.7008 5.23652 31.3455 7.58145 31.3506 10.4577C31.3557 13.3289 33.7366 15.6993 36.5978 15.6789C39.4641 15.6636 41.7786 13.3391 41.7939 10.473C41.8093 7.57635 39.4845 5.24162 36.5876 5.23652Z" fill="#333CDF"/>
<path d="M13.0798 8.72071C14.5257 8.72582 15.6957 9.90595 15.6804 11.3364C15.665 12.772 14.4899 13.9317 13.0491 13.9266C11.6134 13.9215 10.4434 12.7413 10.4485 11.3058C10.4587 9.87019 11.6338 8.71049 13.0798 8.72071ZM13.0644 12.1896C13.5396 12.1896 13.933 11.7911 13.9279 11.3109C13.9228 10.8306 13.5192 10.4373 13.044 10.4526C12.5842 10.4679 12.2214 10.8358 12.2112 11.3058C12.201 11.7962 12.579 12.1896 13.0644 12.1896Z" fill="#333CDF"/>
<path d="M50.5155 33.948C50.5257 35.3784 49.3505 36.5688 47.9199 36.5841C46.4945 36.5943 45.304 35.4193 45.2887 33.9837C45.2733 32.5584 46.4536 31.3629 47.8842 31.3476C49.3046 31.3323 50.5052 32.5175 50.5155 33.948ZM48.7579 33.9378C48.7425 33.4473 48.3542 33.0846 47.8637 33.105C47.3988 33.1255 47.0411 33.4933 47.0411 33.9582C47.0411 34.4435 47.4243 34.8216 47.9148 34.8165C48.4053 34.8165 48.7732 34.4282 48.7579 33.9378Z" fill="#333CDF"/>
<path d="M34.8249 47.895C34.8249 49.3408 33.6651 50.5107 32.2294 50.5107C30.7885 50.5107 29.6236 49.3459 29.6236 47.9001C29.6236 46.4543 30.7834 45.2844 32.2191 45.2844C33.66 45.2844 34.8249 46.4492 34.8249 47.895ZM33.0979 47.8746C33.0826 47.4097 32.6688 47.0214 32.2038 47.0367C31.7338 47.052 31.3403 47.4607 31.3557 47.9256C31.371 48.4008 31.7695 48.7686 32.2498 48.7584C32.7301 48.7482 33.1133 48.3497 33.0979 47.8797V47.8746Z" fill="#333CDF"/>
<path d="M13.9279 47.9205C13.9177 49.3612 12.7425 50.5209 11.3017 50.5107C9.86601 50.5005 8.71131 49.3255 8.72153 47.8797C8.73175 46.4339 9.90689 45.2691 11.3426 45.2844C12.7834 45.2997 13.933 46.4747 13.9279 47.9205ZM12.1907 47.9154C12.201 47.4403 11.8024 47.0367 11.3273 47.0367C10.8521 47.0367 10.4485 47.4352 10.4536 47.9103C10.4587 48.3701 10.8317 48.743 11.2915 48.7584C11.782 48.7737 12.1805 48.4008 12.1907 47.9205V47.9154Z" fill="#333CDF"/>
</g>
<defs>
<clipPath id="clip0_11_114">
<rect width="54" height="54" fill="white"/>
</clipPath>
</defs>
</svg>
