<svg width="205" height="39" viewBox="0 0 205 39" fill="none" xmlns="http://www.w3.org/2000/svg">
<g clip-path="url(#clip0_10_30)">
<path d="M53.2912 34.518L55.3431 31.8132C57.2463 33.9161 60.2463 35.0207 63.3523 35.0207C68.6093 35.0207 72.062 31.8132 72.062 27.6073C72.062 23.451 68.4041 20.8949 64.0528 20.8949C62.2486 20.8949 60.7486 21.2985 59.3972 22.2473L57.7982 19.6912L69.1116 8.97115H54.2959V5.51581H74.5738V8.87202L64.9089 17.9918C65.6093 17.9918 66.6636 17.9918 67.5126 18.1405C72.4724 18.8415 76.1232 22.5022 76.1232 27.6073C76.1232 34.3693 70.7177 38.476 63.607 38.476C59.1991 38.476 55.6473 37.0245 53.2912 34.518Z" fill="#171717"/>
<path d="M85.5617 13.5735H81.7552V37.9733H85.5617V13.5735Z" fill="#171717"/>
<path d="M81.1538 7.7674C81.1538 6.36544 82.2576 5.2113 83.6585 5.2113C85.0594 5.2113 86.2127 6.36544 86.2127 7.7674C86.2127 9.16936 85.0594 10.2739 83.6585 10.2739C82.2576 10.2739 81.1538 9.16936 81.1538 7.7674Z" fill="#171717"/>
<path d="M107.481 34.4684C112.54 34.4684 115.795 32.2168 115.795 28.0534C115.795 24.1449 112.844 21.5392 108.486 21.5392H96.67V34.4684H107.481ZM107.927 18.0839C110.828 18.0839 112.582 16.1792 112.582 13.5735C112.582 10.7201 110.679 9.01363 107.276 9.01363H96.6629V18.0839H107.927ZM92.6583 5.50873H107.531C112.936 5.50873 116.792 8.06483 116.792 13.2762C116.792 15.9809 115.193 18.3884 113.141 19.2876C116.792 20.0381 119.997 23.4439 119.997 28.0038C119.997 34.3693 115.144 37.9733 107.729 37.9733H92.6583V5.50873Z" fill="#171717"/>
<path d="M124.292 13.5735H128.098V18.7353C129.499 15.5278 133.582 13.0708 138.443 13.0708L135.768 17.2271C130.058 17.2271 128.098 20.4346 128.098 26.3965V37.9733H124.292V13.5735Z" fill="#171717"/>
<path d="M157.178 26.3257C157.178 21.2135 153.52 17.305 148.864 17.305C144.209 17.305 140.402 21.1144 140.402 26.3257C140.402 31.5371 144.004 35.2969 148.864 35.2969C153.52 35.2969 157.178 31.4379 157.178 26.3257ZM136.497 26.3257C136.497 19.1601 141.251 13.6019 148.008 13.6019C151.914 13.6019 155.367 15.2021 157.171 18.36V14.0975H160.977V38.4973H157.171V34.2418C155.367 37.4494 151.914 39 148.008 39C141.251 39 136.497 33.3922 136.497 26.3257Z" fill="#171717"/>
<path d="M166.326 35.2969L167.876 32.1885C169.68 33.9445 172.284 35.396 175.836 35.396C179.189 35.396 181.942 33.8453 181.942 31.6362C181.942 29.0801 178.991 28.3791 176.034 27.6286C171.527 26.4744 167.423 25.2211 167.423 20.5621C167.423 16.1509 172.029 13.5948 176.133 13.5948C179.486 13.5948 181.942 14.494 184.446 16.2005L182.946 19.3088C180.894 17.9069 178.744 17.2059 176.189 17.2059C173.685 17.2059 171.336 18.6079 171.336 20.5125C171.336 22.9199 174.038 23.4652 176.89 24.067C181.298 25.0725 185.854 26.7222 185.854 31.53C185.854 36.6917 180.597 38.9929 175.843 38.9929C171.088 38.9929 167.734 36.7413 166.333 35.2827" fill="#171717"/>
<path d="M194.713 13.5735H190.906V37.9733H194.713V13.5735Z" fill="#171717"/>
<path d="M190.276 7.7674C190.276 6.36544 191.38 5.2113 192.781 5.2113C194.182 5.2113 195.335 6.36544 195.335 7.7674C195.335 9.16936 194.182 10.2739 192.781 10.2739C191.38 10.2739 190.276 9.16936 190.276 7.7674Z" fill="#171717"/>
<path d="M205 5.00598H201.193V37.9733H205V5.00598Z" fill="#171717"/>
<path d="M45.8763 0.0778867H38.1501C37.4213 0.0778867 36.827 0.672658 36.827 1.40196V8.27015H29.4899V1.53649C29.4899 0.6939 28.7894 0 27.9192 0H7.75454C3.48105 0 0 3.33497 0 7.44172V14.5861C0.00707531 15.4286 0.714606 16.1225 1.57779 16.1225H8.81583C9.67902 16.1225 10.3795 15.4357 10.3795 14.5861V9.97658H27.8979V14.4798H19.2165C18.3534 14.4798 17.6458 15.1667 17.6458 16.0163V22.6934C17.6458 23.5359 18.3463 24.2298 19.2165 24.2298H27.8979V28.9172H10.4219V24.2086C10.4219 23.366 9.72147 22.6721 8.85121 22.6721H1.61317C0.749983 22.6721 0.0495272 23.3589 0.0424519 24.2015L0.0212259 31.1901C0.0212259 33.1231 0.778284 34.957 2.17212 36.3519C3.65086 37.8388 5.63902 38.653 7.77576 38.653H30.6573C32.7233 38.653 34.6619 37.8813 36.1265 36.4864C37.5982 35.0773 38.4119 33.2081 38.4119 31.2113V10.0545H45.8692C46.598 10.0545 47.1923 9.45969 47.1923 8.73039V1.40196C47.1923 0.672658 46.598 0.0778867 45.8692 0.0778867H45.8763ZM10.3583 8.39052C9.49506 8.39052 8.78753 9.07734 8.78753 9.92702V14.5365H1.59902L1.59194 7.4488C1.58487 4.21296 4.35132 1.58606 7.75454 1.58606H27.8979V8.38344H10.3583V8.39052ZM36.827 31.2184C36.827 32.7761 36.1902 34.2418 35.0369 35.3464C33.8695 36.4581 32.32 37.0741 30.6644 37.0741H7.77576C6.06354 37.0741 4.4716 36.4156 3.29709 35.2402C2.2075 34.1427 1.6061 32.7124 1.61317 31.2042L1.6344 24.2723H8.82999V30.5103H29.4828V22.6438H19.2378V16.0801H29.4828V9.87037H36.8199V31.2326L36.827 31.2184ZM45.6074 8.46133H38.4119V1.66394H45.6074V8.46133Z" fill="white"/>
</g>
<defs>
<clipPath id="clip0_10_30">
<rect width="205" height="39" fill="white"/>
</clipPath>
</defs>
</svg>
