<svg width="481" height="106" viewBox="0 0 481 106" fill="none" xmlns="http://www.w3.org/2000/svg">
<path d="M114.977 10.1701H97.3068C95.6352 10.1701 94.2765 11.4865 94.2765 13.1061V28.3258H77.4761V13.3945C77.4761 11.5235 75.8656 10 73.8886 10H27.7468C17.9613 10 10 17.3954 10 26.4843L10.0229 42.3031C10.0229 44.1741 11.6335 45.6975 13.6104 45.6975H30.1665C32.1435 45.6975 33.754 44.1741 33.754 42.3031V32.0974H73.8428V42.0738H53.9816C52.0047 42.0738 50.3941 43.5972 50.3941 45.4683V60.2591C50.3941 62.1301 52.0047 63.6535 53.9816 63.6535H73.8428V74.0441H33.8456V63.6166C33.8456 61.7455 32.2351 60.2221 30.2581 60.2221H13.6944C11.7251 60.2221 10.1145 61.7381 10.1069 63.6092L10.0534 79.0951C10.0382 83.377 11.7861 87.4445 14.9691 90.5358C18.3506 93.8193 22.8998 95.6312 27.7926 95.6312H80.163V95.6386C84.8878 95.6386 89.3303 93.9377 92.6735 90.839C96.0473 87.7255 97.9022 83.5693 97.9022 79.1543V32.2749H114.97C116.641 32.2749 118 30.9585 118 29.3389V13.1061C118 11.4865 116.641 10.1701 114.97 10.1701H114.977ZM33.7082 28.5846C31.7313 28.5846 30.1207 30.1081 30.1207 31.9791V42.1847H13.6562L13.6333 26.4843C13.6333 19.3404 19.9611 13.5202 27.7468 13.5202H73.8428V28.5772H33.7082V28.5846ZM94.2765 79.1691C94.2765 82.6153 92.8186 85.8619 90.1699 88.3098C87.4983 90.7798 83.949 92.1332 80.163 92.1332H27.7926C23.8769 92.1258 20.2359 90.6837 17.5415 88.0657C15.0454 85.64 13.6715 82.46 13.6868 79.1173L13.7402 63.7497H30.2047V77.5791H77.4685V60.1481H54.0198V45.6088H77.4685V31.8534H94.2688V79.1765L94.2765 79.1691ZM114.374 28.7547H97.9098V13.6903H114.374V28.7473V28.7547Z" fill="#333CDF"/>
<path d="M216.18 60.24C214.967 60.24 213.893 59.9533 212.96 59.38C212.027 58.7933 211.3 57.9667 210.78 56.9C210.26 55.82 210 54.54 210 53.06C210 51.6333 210.26 50.3733 210.78 49.28C211.313 48.1733 212.06 47.3133 213.02 46.7C213.993 46.0733 215.127 45.76 216.42 45.76C217.087 45.76 217.693 45.8267 218.24 45.96C218.787 46.08 219.3 46.2533 219.78 46.48L219.2 48.08C218.787 47.88 218.36 47.72 217.92 47.6C217.493 47.48 216.987 47.42 216.4 47.42C215.547 47.42 214.78 47.64 214.1 48.08C213.433 48.52 212.907 49.1533 212.52 49.98C212.133 50.8067 211.94 51.8067 211.94 52.98C211.94 54.1 212.127 55.08 212.5 55.92C212.887 56.76 213.413 57.4133 214.08 57.88C214.76 58.3467 215.533 58.58 216.4 58.58C217.053 58.58 217.62 58.5 218.1 58.34C218.58 58.18 219.047 57.9733 219.5 57.72L220.08 59.3C219.587 59.5667 219.02 59.7933 218.38 59.98C217.753 60.1533 217.02 60.24 216.18 60.24ZM226.25 60.24C225.263 60.24 224.376 60.0133 223.59 59.56C222.803 59.0933 222.183 58.4533 221.73 57.64C221.29 56.8133 221.07 55.8667 221.07 54.8C221.07 53.68 221.296 52.7133 221.75 51.9C222.203 51.0867 222.823 50.46 223.61 50.02C224.396 49.58 225.276 49.36 226.25 49.36C227.223 49.36 228.096 49.58 228.87 50.02C229.656 50.46 230.276 51.0867 230.73 51.9C231.196 52.7 231.43 53.6533 231.43 54.76C231.43 55.8667 231.203 56.8333 230.75 57.66C230.296 58.4733 229.676 59.1067 228.89 59.56C228.116 60.0133 227.236 60.24 226.25 60.24ZM226.25 58.64C227.303 58.64 228.123 58.2867 228.71 57.58C229.296 56.86 229.59 55.9333 229.59 54.8C229.59 54.1067 229.443 53.4733 229.15 52.9C228.856 52.3133 228.456 51.8467 227.95 51.5C227.456 51.14 226.89 50.96 226.25 50.96C225.196 50.96 224.376 51.3067 223.79 52C223.203 52.6933 222.91 53.6133 222.91 54.76C222.91 55.4533 223.056 56.1 223.35 56.7C223.643 57.2867 224.036 57.76 224.53 58.12C225.036 58.4667 225.61 58.64 226.25 58.64ZM233.812 64.4V52.26C233.812 51.8067 233.699 51.4867 233.472 51.3C233.259 51.1 232.979 51 232.632 51L233.012 49.6C234.239 49.6 235.005 50.0867 235.312 51.06C235.445 50.86 235.659 50.6267 235.952 50.36C236.259 50.0933 236.632 49.86 237.072 49.66C237.525 49.46 238.039 49.36 238.612 49.36C239.412 49.36 240.159 49.5733 240.852 50C241.559 50.4133 242.125 51.02 242.552 51.82C242.979 52.6067 243.192 53.5667 243.192 54.7C243.192 55.8067 242.979 56.78 242.552 57.62C242.125 58.4467 241.565 59.0933 240.872 59.56C240.192 60.0133 239.452 60.24 238.652 60.24C238.039 60.24 237.465 60.12 236.932 59.88C236.399 59.6267 235.959 59.34 235.612 59.02V64.4H233.812ZM238.292 58.64C239.199 58.64 239.932 58.2867 240.492 57.58C241.065 56.86 241.352 55.92 241.352 54.76C241.352 53.96 241.205 53.2733 240.912 52.7C240.632 52.1267 240.252 51.6867 239.772 51.38C239.305 51.0733 238.785 50.92 238.212 50.92C237.639 50.92 237.119 51.0667 236.652 51.36C236.199 51.64 235.852 51.9467 235.612 52.28V57.4C235.959 57.76 236.359 58.06 236.812 58.3C237.265 58.5267 237.759 58.64 238.292 58.64ZM245.567 64.64C245.167 64.64 244.814 64.6 244.507 64.52C244.214 64.44 243.98 64.3467 243.807 64.24L244.207 62.74C244.367 62.8333 244.567 62.9133 244.807 62.98C245.047 63.0467 245.314 63.08 245.607 63.08C246.167 63.08 246.667 62.9 247.107 62.54C247.547 62.18 247.967 61.4733 248.367 60.42L248.827 59.22H247.867L243.807 50.08L245.407 49.36L249.287 58.02L252.307 49.44L253.967 50.08L250.147 60.52C249.76 61.5867 249.34 62.42 248.887 63.02C248.434 63.62 247.934 64.04 247.387 64.28C246.84 64.52 246.234 64.64 245.567 64.64ZM255.776 60V49.6H257.516V51.86C257.689 51.42 257.922 51.0133 258.216 50.64C258.509 50.2533 258.876 49.9467 259.316 49.72C259.756 49.48 260.269 49.36 260.856 49.36C261.056 49.36 261.256 49.3733 261.456 49.4C261.656 49.4133 261.822 49.44 261.956 49.48L261.416 51.34C261.162 51.2333 260.862 51.18 260.516 51.18C260.022 51.18 259.549 51.32 259.096 51.6C258.656 51.88 258.289 52.3133 257.996 52.9C257.716 53.4867 257.576 54.2333 257.576 55.14V60H255.776ZM263.764 60V49.6H265.564V60H263.764ZM264.664 47.82C264.317 47.82 264.017 47.6933 263.764 47.44C263.524 47.1867 263.404 46.8933 263.404 46.56C263.404 46.1733 263.517 45.8667 263.744 45.64C263.971 45.4133 264.277 45.3 264.664 45.3C265.011 45.3 265.304 45.4267 265.544 45.68C265.797 45.92 265.924 46.2133 265.924 46.56C265.924 46.9333 265.811 47.24 265.584 47.48C265.357 47.7067 265.051 47.82 264.664 47.82ZM272.584 64.64C271.971 64.64 271.371 64.5667 270.784 64.42C270.211 64.2733 269.697 64.0533 269.244 63.76L269.904 62.2C270.224 62.4533 270.597 62.66 271.024 62.82C271.451 62.9933 271.971 63.08 272.584 63.08C273.531 63.08 274.271 62.8267 274.804 62.32C275.351 61.8267 275.624 61.0333 275.624 59.94V58.66C275.357 58.98 274.971 59.2867 274.464 59.58C273.971 59.86 273.377 60 272.684 60C271.897 60 271.151 59.8 270.444 59.4C269.737 58.9867 269.164 58.3867 268.724 57.6C268.284 56.8133 268.064 55.8667 268.064 54.76C268.064 53.72 268.277 52.7933 268.704 51.98C269.144 51.1667 269.731 50.5267 270.464 50.06C271.197 49.5933 272.004 49.36 272.884 49.36C273.471 49.36 274.004 49.46 274.484 49.66C274.964 49.86 275.377 50.1067 275.724 50.4V49.6H277.364V59.76C277.364 60.9067 277.164 61.84 276.764 62.56C276.364 63.28 275.804 63.8067 275.084 64.14C274.377 64.4733 273.544 64.64 272.584 64.64ZM273.084 58.4C273.617 58.4 274.097 58.28 274.524 58.04C274.951 57.8 275.297 57.52 275.564 57.2V51.76C275.271 51.5467 274.917 51.3533 274.504 51.18C274.091 51.0067 273.611 50.92 273.064 50.92C272.517 50.92 272.004 51.0667 271.524 51.36C271.044 51.6533 270.651 52.08 270.344 52.64C270.051 53.1867 269.904 53.86 269.904 54.66C269.904 55.42 270.051 56.08 270.344 56.64C270.651 57.2 271.044 57.6333 271.524 57.94C272.004 58.2467 272.524 58.4 273.084 58.4ZM280.463 60V45.2H282.263V51.26C282.637 50.7133 283.11 50.26 283.683 49.9C284.257 49.54 284.93 49.36 285.703 49.36C286.877 49.36 287.75 49.7133 288.323 50.42C288.91 51.1267 289.203 52.06 289.203 53.22V60H287.403V53.42C287.403 52.6733 287.23 52.0733 286.883 51.62C286.537 51.1667 286.05 50.94 285.423 50.94C284.81 50.94 284.223 51.16 283.663 51.6C283.117 52.0267 282.65 52.5333 282.263 53.12V60H280.463ZM295.939 60.24C294.939 60.24 294.146 59.9133 293.559 59.26C292.986 58.5933 292.699 57.6467 292.699 56.42V51.54H290.899V49.98H292.739L293.119 46.7H294.499V49.98H297.379V51.54H294.499V56.56C294.499 57.3333 294.659 57.8733 294.979 58.18C295.313 58.4867 295.706 58.64 296.159 58.64C296.493 58.64 296.806 58.5867 297.099 58.48C297.406 58.3733 297.686 58.2467 297.939 58.1L298.439 59.54C298.173 59.7 297.813 59.8533 297.359 60C296.906 60.16 296.433 60.24 295.939 60.24ZM309.825 60.24C308.958 60.24 308.205 60.1267 307.565 59.9C306.925 59.66 306.378 59.3733 305.925 59.04L306.745 57.54C307.118 57.82 307.551 58.0667 308.045 58.28C308.538 58.4933 309.138 58.6 309.845 58.6C310.725 58.6 311.418 58.3667 311.925 57.9C312.445 57.4333 312.705 56.8533 312.705 56.16C312.705 55.6667 312.571 55.22 312.305 54.82C312.038 54.4067 311.625 54.0733 311.065 53.82C310.518 53.5667 309.805 53.44 308.925 53.44H307.805V51.98H308.845C309.631 51.98 310.278 51.86 310.785 51.62C311.305 51.38 311.691 51.0667 311.945 50.68C312.198 50.2933 312.325 49.8867 312.325 49.46C312.325 48.8333 312.085 48.3267 311.605 47.94C311.138 47.5533 310.558 47.36 309.865 47.36C309.238 47.36 308.678 47.4667 308.185 47.68C307.705 47.88 307.311 48.1067 307.005 48.36L306.265 46.94C306.665 46.6733 307.178 46.4133 307.805 46.16C308.431 45.8933 309.165 45.76 310.005 45.76C310.885 45.76 311.631 45.92 312.245 46.24C312.858 46.56 313.325 46.9867 313.645 47.52C313.978 48.04 314.145 48.6067 314.145 49.22C314.145 50.0067 313.945 50.6667 313.545 51.2C313.158 51.7333 312.605 52.1733 311.885 52.52C312.725 52.84 313.378 53.3133 313.845 53.94C314.325 54.5533 314.565 55.2733 314.565 56.1C314.565 56.7933 314.391 57.46 314.045 58.1C313.711 58.7267 313.191 59.24 312.485 59.64C311.791 60.04 310.905 60.24 309.825 60.24ZM318.237 60V49.6H320.037V60H318.237ZM319.137 47.82C318.79 47.82 318.49 47.6933 318.237 47.44C317.997 47.1867 317.877 46.8933 317.877 46.56C317.877 46.1733 317.99 45.8667 318.217 45.64C318.443 45.4133 318.75 45.3 319.137 45.3C319.483 45.3 319.777 45.4267 320.017 45.68C320.27 45.92 320.397 46.2133 320.397 46.56C320.397 46.9333 320.283 47.24 320.057 47.48C319.83 47.7067 319.523 47.82 319.137 47.82ZM333.473 60.16C332.659 60.16 331.886 60.14 331.153 60.1C330.433 60.06 329.859 60.0133 329.433 59.96V46.04C329.899 45.9867 330.479 45.94 331.173 45.9C331.866 45.86 332.659 45.84 333.553 45.84C335.259 45.84 336.573 46.1667 337.493 46.82C338.413 47.46 338.873 48.3333 338.873 49.44C338.873 50.1733 338.673 50.8 338.273 51.32C337.886 51.8267 337.319 52.2467 336.573 52.58C337.479 52.9 338.166 53.3467 338.633 53.92C339.099 54.48 339.333 55.1733 339.333 56C339.333 57.2667 338.833 58.28 337.833 59.04C336.833 59.7867 335.379 60.16 333.473 60.16ZM331.333 52.04H333.533C334.586 52.04 335.419 51.82 336.033 51.38C336.659 50.94 336.973 50.3733 336.973 49.68C336.973 48.9333 336.666 48.3667 336.053 47.98C335.439 47.58 334.599 47.38 333.533 47.38C333.093 47.38 332.693 47.3933 332.333 47.42C331.973 47.4333 331.639 47.4533 331.333 47.48V52.04ZM333.613 58.58C334.799 58.58 335.726 58.3667 336.393 57.94C337.059 57.5133 337.393 56.8933 337.393 56.08C337.393 55.28 337.066 54.6533 336.413 54.2C335.759 53.7467 334.826 53.52 333.613 53.52H331.333V58.46C332.039 58.54 332.799 58.58 333.613 58.58ZM341.83 60V49.6H343.57V51.86C343.744 51.42 343.977 51.0133 344.27 50.64C344.564 50.2533 344.93 49.9467 345.37 49.72C345.81 49.48 346.324 49.36 346.91 49.36C347.11 49.36 347.31 49.3733 347.51 49.4C347.71 49.4133 347.877 49.44 348.01 49.48L347.47 51.34C347.217 51.2333 346.917 51.18 346.57 51.18C346.077 51.18 345.604 51.32 345.15 51.6C344.71 51.88 344.344 52.3133 344.05 52.9C343.77 53.4867 343.63 54.2333 343.63 55.14V60H341.83ZM353.193 60.24C352.327 60.24 351.54 60.02 350.833 59.58C350.127 59.14 349.56 58.52 349.133 57.72C348.72 56.9067 348.513 55.9533 348.513 54.86C348.513 53.82 348.72 52.8867 349.133 52.06C349.56 51.2333 350.14 50.58 350.873 50.1C351.62 49.6067 352.473 49.36 353.433 49.36C354.033 49.36 354.573 49.4667 355.053 49.68C355.547 49.88 355.973 50.1333 356.333 50.44V49.6H357.973V57.48C357.973 57.9867 358.093 58.32 358.333 58.48C358.587 58.6267 358.86 58.7 359.153 58.7L358.773 60.1C357.493 60.1 356.72 59.58 356.453 58.54C356.147 58.9667 355.727 59.36 355.193 59.72C354.673 60.0667 354.007 60.24 353.193 60.24ZM353.593 58.64C354.1 58.64 354.58 58.52 355.033 58.28C355.487 58.0267 355.867 57.7133 356.173 57.34V51.76C355.813 51.5067 355.413 51.3067 354.973 51.16C354.547 51 354.093 50.92 353.613 50.92C352.973 50.92 352.407 51.0867 351.913 51.42C351.433 51.74 351.053 52.1933 350.773 52.78C350.493 53.3533 350.353 54.0267 350.353 54.8C350.353 55.5467 350.493 56.2133 350.773 56.8C351.053 57.3733 351.44 57.8267 351.933 58.16C352.427 58.48 352.98 58.64 353.593 58.64ZM364.357 60.24C363.57 60.24 362.857 60.14 362.217 59.94C361.59 59.74 361.07 59.48 360.657 59.16L361.417 57.66C361.764 57.9533 362.197 58.2 362.717 58.4C363.25 58.5867 363.817 58.68 364.417 58.68C365.164 58.68 365.724 58.56 366.097 58.32C366.484 58.0667 366.677 57.7467 366.677 57.36C366.677 57.08 366.604 56.8333 366.457 56.62C366.324 56.4067 366.07 56.2 365.697 56C365.324 55.7867 364.784 55.56 364.077 55.32C363.104 54.9867 362.37 54.5933 361.877 54.14C361.397 53.6733 361.157 53.0333 361.157 52.22C361.157 51.42 361.504 50.7467 362.197 50.2C362.904 49.64 363.877 49.36 365.117 49.36C365.784 49.36 366.377 49.4333 366.897 49.58C367.417 49.7133 367.884 49.8867 368.297 50.1L367.797 51.58C367.437 51.3667 367.024 51.1933 366.557 51.06C366.104 50.9267 365.597 50.86 365.037 50.86C364.344 50.86 363.817 51 363.457 51.28C363.097 51.56 362.917 51.8667 362.917 52.2C362.917 52.52 363.057 52.7933 363.337 53.02C363.617 53.2467 364.164 53.4933 364.977 53.76C366.297 54.2 367.217 54.6867 367.737 55.22C368.257 55.7533 368.517 56.42 368.517 57.22C368.517 58.1533 368.137 58.8933 367.377 59.44C366.63 59.9733 365.624 60.24 364.357 60.24ZM370.913 60V49.6H372.713V60H370.913ZM371.812 47.82C371.466 47.82 371.166 47.6933 370.913 47.44C370.673 47.1867 370.553 46.8933 370.553 46.56C370.553 46.1733 370.666 45.8667 370.893 45.64C371.119 45.4133 371.426 45.3 371.812 45.3C372.159 45.3 372.453 45.4267 372.693 45.68C372.946 45.92 373.073 46.2133 373.073 46.56C373.073 46.9333 372.959 47.24 372.733 47.48C372.506 47.7067 372.199 47.82 371.812 47.82ZM379.073 60.24C378.459 60.24 377.906 60.1267 377.413 59.9C376.919 59.66 376.526 59.28 376.233 58.76C375.953 58.24 375.813 57.5667 375.813 56.74V45.2H377.613V56.56C377.613 57.28 377.759 57.8133 378.053 58.16C378.359 58.5067 378.779 58.68 379.312 58.68C379.566 58.68 379.813 58.6533 380.053 58.6C380.306 58.5333 380.519 58.46 380.693 58.38L381.133 59.84C380.893 59.9467 380.593 60.04 380.233 60.12C379.886 60.2 379.499 60.24 379.073 60.24ZM388.983 60C388.943 59.76 388.923 59.5133 388.923 59.26C388.923 58.3933 389.069 57.62 389.363 56.94C389.669 56.2467 390.063 55.62 390.543 55.06C391.023 54.4867 391.529 53.96 392.063 53.48C392.609 52.9867 393.116 52.52 393.583 52.08C394.063 51.6267 394.456 51.1733 394.763 50.72C395.069 50.2667 395.223 49.7933 395.223 49.3C395.223 48.74 395.016 48.28 394.603 47.92C394.189 47.5467 393.656 47.36 393.003 47.36C392.443 47.36 391.929 47.4733 391.463 47.7C391.009 47.9133 390.583 48.2067 390.183 48.58L389.183 47.36C389.716 46.88 390.303 46.4933 390.943 46.2C391.596 45.9067 392.349 45.76 393.203 45.76C393.989 45.76 394.676 45.9133 395.263 46.22C395.849 46.5133 396.303 46.92 396.623 47.44C396.956 47.96 397.123 48.54 397.123 49.18C397.123 49.82 396.983 50.4133 396.703 50.96C396.423 51.5067 396.063 52.02 395.623 52.5C395.183 52.98 394.709 53.4467 394.203 53.9C393.696 54.34 393.209 54.7933 392.743 55.26C392.276 55.7267 391.876 56.2133 391.543 56.72C391.223 57.2267 391.023 57.7733 390.943 58.36H397.103V60H388.983ZM405.195 60.24C403.635 60.24 402.448 59.6067 401.635 58.34C400.822 57.06 400.415 55.2733 400.415 52.98C400.415 50.6733 400.828 48.8933 401.655 47.64C402.495 46.3867 403.688 45.76 405.235 45.76C406.795 45.76 407.982 46.3933 408.795 47.66C409.608 48.9267 410.015 50.7133 410.015 53.02C410.015 55.3267 409.595 57.1067 408.755 58.36C407.928 59.6133 406.742 60.24 405.195 60.24ZM405.215 58.6C405.815 58.6 406.328 58.4267 406.755 58.08C407.195 57.72 407.528 57.1333 407.755 56.32C407.995 55.5067 408.115 54.4133 408.115 53.04C408.115 51.2 407.855 49.8 407.335 48.84C406.828 47.88 406.122 47.4 405.215 47.4C404.615 47.4 404.095 47.58 403.655 47.94C403.228 48.2867 402.895 48.8667 402.655 49.68C402.428 50.48 402.315 51.5733 402.315 52.96C402.315 54.8 402.568 56.2 403.075 57.16C403.595 58.12 404.308 58.6 405.215 58.6ZM412.967 60C412.927 59.76 412.907 59.5133 412.907 59.26C412.907 58.3933 413.054 57.62 413.347 56.94C413.654 56.2467 414.047 55.62 414.527 55.06C415.007 54.4867 415.514 53.96 416.047 53.48C416.594 52.9867 417.1 52.52 417.567 52.08C418.047 51.6267 418.44 51.1733 418.747 50.72C419.054 50.2667 419.207 49.7933 419.207 49.3C419.207 48.74 419 48.28 418.587 47.92C418.174 47.5467 417.64 47.36 416.987 47.36C416.427 47.36 415.914 47.4733 415.447 47.7C414.994 47.9133 414.567 48.2067 414.167 48.58L413.167 47.36C413.7 46.88 414.287 46.4933 414.927 46.2C415.58 45.9067 416.334 45.76 417.187 45.76C417.974 45.76 418.66 45.9133 419.247 46.22C419.834 46.5133 420.287 46.92 420.607 47.44C420.94 47.96 421.107 48.54 421.107 49.18C421.107 49.82 420.967 50.4133 420.687 50.96C420.407 51.5067 420.047 52.02 419.607 52.5C419.167 52.98 418.694 53.4467 418.187 53.9C417.68 54.34 417.194 54.7933 416.727 55.26C416.26 55.7267 415.86 56.2133 415.527 56.72C415.207 57.2267 415.007 57.7733 414.927 58.36H421.087V60H412.967ZM430.459 60V57.02H424.479V55.58L428.659 45.86L430.219 46.52L426.439 55.38H430.459V51.4H432.259V55.38H433.919V57.02H432.259V60H430.459Z" fill="#666666"/>
</svg>
