<svg width="50" height="50" viewBox="0 0 50 50" fill="none" xmlns="http://www.w3.org/2000/svg">
<g clip-path="url(#clip0_11_130)">
<path d="M11.1388 0C12.2756 0.187901 13.4398 0.27956 14.5399 0.582035C16.4147 1.09991 18.2482 1.75527 20.1093 2.33272C20.3293 2.40147 20.586 2.3648 20.8289 2.35564C21.2735 2.33272 21.7136 2.29148 22.2591 2.25023C22.3324 2.10816 22.4607 1.84693 22.6028 1.59487C23.2583 0.421632 24.6105 -0.0366636 25.8344 0.513291C26.3661 0.751604 26.8887 1.01742 27.4066 1.29239C28.6764 1.97067 29.1256 3.35472 28.5159 4.66545C28.4151 4.88543 28.3051 5.10083 28.3234 5.27498C28.5663 5.74702 28.8001 6.22365 29.066 6.68194C29.1485 6.82402 29.3135 6.92484 29.4648 7.01192C32.2746 8.66178 34.8324 10.6279 36.9455 13.1256C38.7149 15.22 40.0442 17.5481 40.4705 20.2933C40.6034 21.1549 40.608 22.0394 40.6217 22.9148C40.6309 23.648 40.2596 24.1888 39.5766 24.473C38.9257 24.7434 38.2702 24.5371 37.7202 23.9872C36.1754 22.429 34.6811 20.8112 33.0539 19.3492C30.8307 17.3556 28.3188 15.7562 25.6556 14.4042C25.5227 14.3355 25.3577 14.2988 25.211 14.3126C24.7114 14.363 24.2163 14.4409 23.5883 14.5234C23.075 15.55 22.4791 16.7369 21.8832 17.9285C18.2207 25.2521 14.5537 32.571 10.8958 39.8946C10.3779 40.9349 9.60779 41.6499 8.45267 41.8699C7.11879 42.1219 5.99117 41.6957 5.17067 40.6279C4.33184 39.5371 4.24016 38.3181 4.84523 37.0898C6.42663 33.8863 8.04013 30.692 9.63987 27.4977C12.248 22.2823 14.8608 17.0669 17.469 11.8515C17.5469 11.6957 17.6157 11.5353 17.5515 11.4253C17.3086 10.9853 17.0702 10.5408 16.8135 10.11C16.7447 9.99542 16.6302 9.89459 16.511 9.83501C12.821 8.02017 8.93855 6.82402 4.87273 6.25115C3.82762 6.10449 2.77335 6.03116 1.71908 5.93034C0.834408 5.84785 0.25685 5.44913 0.0689144 4.72502C-0.137356 3.94134 0.169758 3.35472 0.783986 2.8506C2.77335 1.2374 5.06525 0.380385 7.5955 0.091659C7.7376 0.0779102 7.87511 0.0320807 8.01263 0C9.05773 0 10.0983 0 11.1388 0ZM19.2108 12.099C19.1054 12.3098 19.0229 12.4702 18.945 12.626C15.9518 18.6114 12.9585 24.5967 9.96074 30.582C8.76895 32.9652 7.568 35.3437 6.38538 37.7269C5.86283 38.7764 6.34413 39.89 7.41215 40.1787C8.22806 40.3987 8.96605 40.0092 9.41527 39.1109C12.601 32.7498 15.7822 26.3886 18.9679 20.0275C20.0359 17.8964 21.1039 15.7608 22.1857 13.593C21.191 13.0935 20.2238 12.6077 19.2108 12.099ZM19.55 3.9505C19.4354 3.89093 19.3804 3.85426 19.3208 3.83135C16.456 2.66269 13.504 1.85151 10.4054 1.69569C8.01721 1.57195 5.69323 1.88359 3.54801 3.02475C2.94295 3.34555 2.38373 3.75344 1.80617 4.12466C1.81992 4.17049 1.83826 4.21632 1.85201 4.26215C7.27922 4.61045 12.4314 5.99908 17.3406 8.38222C18.0878 6.88359 18.8166 5.4308 19.55 3.95509V3.9505ZM26.279 12.8552C31.147 15.3529 35.3366 18.6572 38.9486 22.8643C39.0495 20.8891 38.6324 19.1567 37.8256 17.5115C36.4505 14.7159 34.3282 12.5573 31.8896 10.692C30.8216 9.87626 29.6894 9.14757 28.5343 8.34556C27.7504 9.90834 27.0216 11.3657 26.279 12.8552ZM24.4226 12.8414C25.4264 10.8341 26.4028 8.87718 27.4021 6.88359C25.3989 5.88451 23.4325 4.89918 21.4431 3.90468C20.4393 5.90743 19.4629 7.86435 18.4637 9.86251C20.4485 10.857 22.4011 11.8332 24.4226 12.846V12.8414ZM26.6549 4.64711C26.7741 4.41797 26.8658 4.25298 26.9483 4.07883C27.26 3.43263 27.1408 3.04766 26.5174 2.71769C26.0728 2.48396 25.6236 2.26398 25.1698 2.044C24.7847 1.86068 24.4226 1.92942 24.1659 2.26398C23.9688 2.52521 23.845 2.84143 23.6754 3.15307C24.6976 3.66178 25.6465 4.14299 26.6503 4.64253L26.6549 4.64711Z" fill="#333CDF"/>
<path d="M50 48.7168C49.6058 49.6929 48.8724 50 47.841 50C35.1348 49.9817 22.4285 49.9863 9.71765 49.9863C9.60306 49.9863 9.48846 49.9863 9.37387 49.9863C8.53503 49.9771 8.19125 49.5325 8.42044 48.7168C9.21343 45.8845 11.0057 43.9643 13.8018 43.0935C14.9523 42.736 16.1854 42.649 17.3909 42.4794C17.6751 42.4381 17.8447 42.3877 17.996 42.1219C19.0778 40.2475 21.1313 39.3126 23.2673 39.7204C23.6157 39.7846 23.7441 39.6746 23.8907 39.3859C25.8251 35.605 29.0246 33.7397 33.1637 33.3364C33.425 33.3089 33.7184 33.4647 33.9842 33.5747C34.8322 33.9322 35.6482 34.4088 36.5282 34.6563C38.4122 35.1879 40.0028 34.3538 40.7453 32.5435C40.9149 32.1357 41.1395 31.8332 41.5154 31.5811C43.2618 30.4079 43.7431 28.5839 42.7943 26.6224C42.5193 26.0541 42.5376 25.5866 42.7347 25.0092C43.9127 21.5765 43.6652 18.231 42.0059 14.9954C41.5429 14.0926 41.5704 13.7901 42.2626 13.0477C42.9226 12.3419 43.7661 11.9753 44.6966 11.8057C45.077 11.7369 45.3154 11.5857 45.5079 11.2374C46.2046 9.99084 47.2406 9.09716 48.5378 8.51513C49.2483 8.19432 49.5141 8.26765 49.9954 8.87718V48.7076L50 48.7168ZM48.2948 48.2997V10.582C47.5752 11.0953 47.0435 11.6911 46.7639 12.4565C46.5347 13.0843 46.1496 13.3456 45.4941 13.3731C44.747 13.4051 44.0823 13.6984 43.5094 14.2026C43.5735 14.3492 43.6194 14.4684 43.6744 14.5875C45.3245 18.1027 45.5583 21.7049 44.3711 25.4079C44.3024 25.6279 44.3253 25.9212 44.4124 26.1366C45.4896 28.7947 44.8478 31.1595 42.5834 32.8964C42.4138 33.0248 42.2947 33.2356 42.1938 33.4326C41.355 35.0825 40.1128 36.2053 38.2151 36.4528C36.6978 36.6545 35.2952 36.2145 34.0117 35.4766C33.2142 35.0183 32.4716 35.0092 31.6419 35.2154C28.4837 36.0037 26.2835 37.8964 25.0321 40.8937C24.7204 41.6361 24.4041 41.7874 23.6753 41.5307C21.7959 40.8708 19.9762 41.659 19.1603 43.5014C19.0044 43.8543 18.8027 44.1247 18.3856 44.143C18.1243 44.1522 17.863 44.1292 17.6064 44.1292C15.7087 44.1292 13.921 44.5005 12.3625 45.6462C11.4412 46.3245 10.7673 47.1952 10.3365 48.3043H48.2903L48.2948 48.2997Z" fill="#333CDF"/>
<path d="M30.5097 31.7369C28.8596 31.6407 27.709 30.5225 27.5486 28.7901C27.3836 27.0211 28.5341 25.5545 30.4547 25.1008C31.6648 24.8167 32.8429 25.0367 33.4388 26.5032C33.6359 26.9844 33.8696 27.4519 34.0163 27.9468C34.438 29.3584 33.9017 30.5729 32.5541 31.1549C31.9078 31.4345 31.1927 31.549 30.5097 31.7369ZM30.4868 29.9725C30.5006 30.0092 30.5097 30.0504 30.5235 30.0871C31.046 29.89 31.5823 29.7159 32.0911 29.4821C32.4578 29.3126 32.6045 28.9734 32.4624 28.5839C32.2745 28.066 32.0499 27.5619 31.8482 27.0532C31.7061 26.7049 31.4356 26.6086 31.0964 26.6728C30.4547 26.7919 29.8863 27.0761 29.4554 27.5665C29.0062 28.0797 29.1346 28.6572 29.3638 29.2163C29.5655 29.7067 29.9047 30.0275 30.4868 29.9771V29.9725Z" fill="#333CDF"/>
<path d="M32.2928 44.1934C32.2928 45.1742 31.8665 45.8066 31.1789 46.0495C30.6151 46.2512 30.0376 46.4253 29.4554 46.5811C28.612 46.8057 27.7824 46.3841 27.4844 45.5683C27.2736 44.9908 27.0948 44.3951 26.9344 43.7993C26.7143 42.9789 27.1177 42.1632 27.9153 41.8607C28.5203 41.6315 29.1437 41.4391 29.7717 41.2787C30.4776 41.1045 31.1377 41.3199 31.4586 41.9478C31.8573 42.736 32.082 43.6068 32.2882 44.1843L32.2928 44.1934ZM28.5387 43.396C28.7129 43.9505 28.8733 44.4501 29.0429 44.9817C29.593 44.8075 30.0926 44.6471 30.6197 44.4776C30.4455 43.9276 30.2897 43.4372 30.1247 42.9056C29.5975 43.066 29.1071 43.2172 28.5387 43.3914V43.396Z" fill="#333CDF"/>
<path d="M40.5986 39.78C41.167 39.9862 42.0334 40.2245 42.8309 40.6049C43.4268 40.8891 43.6652 41.6453 43.491 42.296C43.3306 42.9056 43.1472 43.5151 42.9272 44.1109C42.6155 44.9542 41.7858 45.3575 40.9149 45.1191C40.3694 44.9679 39.824 44.7983 39.2877 44.6104C38.4076 44.3034 37.9584 43.4968 38.1921 42.5985C38.348 42.0027 38.5359 41.4115 38.7514 40.8341C38.9989 40.1696 39.6131 39.7663 40.5986 39.7754V39.78ZM39.8011 43.0293C40.3511 43.2035 40.8599 43.3639 41.387 43.5243C41.5612 42.956 41.7125 42.4656 41.8729 41.9386C41.3229 41.769 40.8232 41.6132 40.2961 41.4482C40.1219 42.0027 39.9707 42.4931 39.8011 43.0293Z" fill="#333CDF"/>
<path d="M46.7134 36.7782C46.5713 36.9478 46.4292 37.2594 46.1909 37.3694C45.9708 37.4702 45.5858 37.4519 45.3933 37.319C44.9991 37.044 44.6645 36.6774 44.3528 36.3107C44.0961 36.0083 44.1236 35.6416 44.3711 35.3254C44.6186 35.0046 45.0266 34.8671 45.3199 35.0917C45.8012 35.4537 46.1909 35.9349 46.608 36.3795C46.6676 36.439 46.663 36.5628 46.718 36.7828L46.7134 36.7782Z" fill="#333CDF"/>
<path d="M22.5752 44.9129C22.4422 45.1925 22.3872 45.4033 22.2589 45.5545C21.9976 45.8616 21.7043 46.1503 21.4017 46.4161C21.0442 46.7324 20.5766 46.7094 20.2604 46.3886C19.9578 46.0816 19.9166 45.6279 20.2099 45.2887C20.4941 44.9588 20.7875 44.6104 21.145 44.3767C21.3651 44.2301 21.7501 44.1842 21.993 44.2759C22.2314 44.3676 22.3781 44.6884 22.5706 44.9175L22.5752 44.9129Z" fill="#333CDF"/>
<path d="M34.1767 39.56C34.1767 38.7168 34.4334 38.3364 35.0018 38.3364C35.5748 38.3364 35.8361 38.7214 35.8361 39.56C35.8361 39.7204 35.8452 39.8854 35.8269 40.0458C35.7719 40.5087 35.419 40.8204 34.9743 40.8112C34.5297 40.7974 34.2088 40.4766 34.1767 39.9954C34.1676 39.8488 34.1767 39.7021 34.1767 39.5555V39.56Z" fill="#333CDF"/>
</g>
<defs>
<clipPath id="clip0_11_130">
<rect width="50" height="50" fill="white"/>
</clipPath>
</defs>
</svg>
