<svg width="604" height="538" viewBox="0 0 604 538" fill="none" xmlns="http://www.w3.org/2000/svg">
<g clip-path="url(#clip0_12_225)">
<path d="M639.555 1.08388H531.845C521.685 1.08388 513.4 9.36081 513.4 19.5099V115.089H411.114V21.3821C411.114 9.65641 401.349 0 389.217 0H108.105C48.5289 0 0 46.4099 0 103.56V202.982C0.0986359 214.707 9.96222 224.364 21.9958 224.364H122.9C134.934 224.364 144.699 214.806 144.699 202.982V138.836H388.921V201.504H267.895C255.862 201.504 245.998 211.062 245.998 222.886V315.804C245.998 327.53 255.763 337.186 267.895 337.186H388.921V402.416H145.291V336.89C145.291 325.165 135.526 315.508 123.394 315.508H22.489C10.4554 315.508 0.690451 325.066 0.591815 336.792L0.295908 434.046C0.295908 460.946 10.8499 486.466 30.2812 505.878C50.8961 526.57 78.6128 537.901 108.401 537.901H427.389C456.191 537.901 483.217 527.161 503.635 507.75C524.151 488.141 535.494 462.128 535.494 434.341V139.919H639.456C649.616 139.919 657.901 131.643 657.901 121.493V19.5099C657.901 9.36081 649.616 1.08388 639.456 1.08388H639.555ZM144.403 116.764C132.369 116.764 122.506 126.322 122.506 138.146V202.292H22.2917L22.1931 103.659C22.0944 58.6282 60.6611 22.0718 108.105 22.0718H388.921V116.665H144.403V116.764ZM513.4 434.44C513.4 456.118 504.523 476.514 488.445 491.886C472.17 507.356 450.569 515.928 427.488 515.928H108.401C84.531 515.928 62.3379 506.764 45.9643 490.408C30.7744 475.135 22.3903 455.231 22.489 434.243L22.7849 337.777H123.098V424.586H411.016V315.114H268.191V223.773H411.016V137.358H513.301V434.637L513.4 434.44ZM635.807 117.749H535.494V23.1557H635.807V117.749Z" fill="white" fill-opacity="0.1"/>
</g>
<defs>
<clipPath id="clip0_12_225">
<rect width="658" height="538" fill="white"/>
</clipPath>
</defs>
</svg>
