<svg width="54" height="54" viewBox="0 0 54 54" fill="none" xmlns="http://www.w3.org/2000/svg">
<g clip-path="url(#clip0_2022_55)">
<path d="M24.5664 54C24.4901 53.9653 24.4067 53.9306 24.3234 53.9028C23.8999 53.7571 23.7749 53.4308 23.8235 53.0283C23.8721 52.6257 24.1221 52.3967 24.5317 52.3828C24.99 52.3689 25.4483 52.3689 25.8996 52.3689C28.6076 52.3689 31.3156 52.3689 34.0236 52.3689C34.2319 52.3689 34.4332 52.3689 34.6624 52.3689V45.7126H32.8154C31.142 45.7126 30.7948 45.5738 30.8087 44.9075C30.8226 44.255 31.1559 44.1301 32.8501 44.1301C33.4403 44.1301 34.0374 44.1301 34.6624 44.1301V42.7141H34.093C30.9962 42.7141 27.9063 42.7141 24.8095 42.7141C23.9068 42.7141 23.6568 42.4573 23.6846 41.5411C23.754 38.6607 25.5802 36.4326 28.6076 35.6692C29.6214 35.4123 30.6837 35.2666 31.7322 35.2527C36.0719 35.2041 40.4186 35.2319 44.7583 35.2319C44.9666 35.2319 45.1749 35.2319 45.404 35.2319V33.0663H17.491C17.484 33.2815 17.4632 33.5036 17.4632 33.7188C17.4632 40.0141 17.4632 46.3026 17.4632 52.5979C17.4632 52.7923 17.4701 52.9866 17.4493 53.174C17.3938 53.6599 17.116 53.9098 16.6508 53.9028C16.1856 53.9028 15.9009 53.646 15.8939 53.1463C15.8731 52.126 15.887 51.1057 15.887 50.0854C15.887 49.8979 15.887 49.7105 15.887 49.4884H1.58329C1.58329 49.6897 1.58329 49.8771 1.58329 50.0645C1.58329 51.0848 1.59023 52.1051 1.58329 53.1255C1.57634 53.6252 1.30555 53.8889 0.840328 53.9028C0.361223 53.9167 0.0557069 53.646 0.0140456 53.1463C0.000158478 53.0075 0.0140456 52.8686 0.0140456 52.7229C0.0140456 44.3175 0.0140456 35.919 0.0140456 27.5136C0.0140456 26.4656 0.215409 26.2643 1.28472 26.2643C2.05545 26.2643 2.83313 26.2643 3.60386 26.2643C3.63858 26.2643 3.66635 26.2434 3.60386 26.2643C3.20114 25.3758 2.62482 24.5221 2.42346 23.5851C2.13183 22.2247 2.09711 20.8087 1.9999 19.4067C1.96518 18.9139 2.31236 18.6501 2.87479 18.6501C4.15935 18.6432 5.4439 18.6501 6.72846 18.6501C6.91594 18.6501 7.10341 18.6501 7.32561 18.6501V17.262C6.72152 17.2064 6.11743 17.2272 5.555 17.0746C3.90938 16.6373 2.68731 15.6794 2.20126 13.9789C2.08322 13.5694 2.10405 13.1113 2.11794 12.674C2.13877 12.1812 2.51372 11.9522 2.91645 11.7925C4.20795 11.2928 5.46473 11.4039 6.67291 12.0771C6.87427 12.1882 7.06175 12.3131 7.34644 12.4866C7.30477 11.7856 7.50614 11.2095 6.89511 10.6334C5.04812 8.88432 5.21477 5.76787 7.15202 4.109C7.79777 3.56067 8.26299 3.5329 8.95734 4.01183C11.0682 5.46247 11.3251 8.77326 9.47116 10.6473C8.87402 11.2512 8.81847 11.4594 8.999 12.438C9.17259 12.3339 9.32535 12.2298 9.49199 12.1396C10.6793 11.4733 11.9222 11.2303 13.2346 11.7301C14.0817 12.0494 14.2692 12.4033 14.165 13.3195C13.922 15.5129 11.957 17.2272 9.7003 17.1995C9.47116 17.1995 9.24897 17.1995 8.97123 17.1995V18.6293C9.92944 18.6293 10.8738 18.6293 11.8181 18.6293C12.2764 18.6293 12.7346 18.6293 13.186 18.6293C13.6442 18.6432 13.9498 18.9 13.9567 19.3373C13.9775 21.364 13.9011 23.3838 12.8457 25.2162C12.6513 25.5494 12.4083 25.8478 12.1583 26.2018H29.9755V23.4185C29.7741 23.4116 29.5936 23.3907 29.4061 23.3907C26.1357 23.3907 22.8653 23.3907 19.5949 23.3907C18.1437 23.3907 17.2896 22.5509 17.2896 21.1141C17.2896 17.1578 17.2896 13.2015 17.2896 9.24524C17.2896 8.83573 17.3452 8.46093 17.7965 8.30823C18.4006 8.1 18.8727 8.47481 18.8727 9.18278C18.8727 11.5566 18.8727 13.9303 18.8727 16.3041C18.8727 16.6373 18.8727 16.9704 18.8727 17.3452H40.3769C40.5227 16.6512 40.6477 15.9293 40.8282 15.2213C41.4393 12.8406 42.5155 10.7167 44.4667 9.13419C44.8347 8.83573 45.2374 8.57198 45.654 8.35681C46.4247 7.95424 46.9663 8.29434 46.9733 9.17584C46.9802 11.6884 46.9733 14.201 46.9733 16.7136C46.9733 16.9219 46.9733 17.1231 46.9733 17.3522H49.3619C49.3688 17.1717 49.3827 16.9843 49.3827 16.8039C49.3827 12.0077 49.3827 7.20463 49.3827 2.40848C49.3827 1.64499 49.2924 1.54781 48.5425 1.54781C38.9396 1.54781 29.3436 1.54781 19.7407 1.54781C18.9908 1.54781 18.8797 1.65887 18.8727 2.38766C18.8727 3.1581 18.8727 3.93548 18.8727 4.70591C18.8727 5.33059 18.5811 5.66375 18.0742 5.65681C17.5812 5.64987 17.3035 5.32365 17.2965 4.73368C17.2965 3.85219 17.2827 2.97763 17.2965 2.09614C17.3035 0.895373 18.1923 0 19.4282 0C29.2186 0 39.016 0 48.8064 0C50.0562 0 50.9519 0.867609 50.9519 2.11003C50.9589 8.50951 50.9589 14.909 50.9519 21.3085C50.9519 22.5509 50.0562 23.4046 48.7994 23.4116C48.2231 23.4116 47.6399 23.4116 47.0149 23.4116V26.2643H47.5704C49.3272 26.2643 51.0839 26.2782 52.8475 26.2573C53.3822 26.2504 53.7641 26.4031 54.0002 26.8889V40.7082C53.7155 41.0622 53.403 41.3537 52.8961 41.1663C52.3823 40.9789 52.4031 40.5555 52.4031 40.1183C52.4031 37.9596 52.4031 35.801 52.4031 33.6355V33.0524H47.008C47.008 33.2954 47.008 33.5036 47.008 33.7118C46.9525 35.3429 46.9941 36.981 46.8066 38.5982C46.522 41.0136 45.1194 42.4018 42.7169 42.6031C40.8005 42.7627 38.8563 42.6864 36.926 42.7072C36.7246 42.7072 36.5163 42.7072 36.3149 42.7072V52.362C36.5649 52.362 36.7732 52.362 36.9815 52.362C39.9672 52.362 42.953 52.362 45.9387 52.362C46.1331 52.362 46.3692 52.3064 46.5081 52.3967C46.7511 52.5494 47.0636 52.7715 47.1052 53.0075C47.1469 53.2504 46.9316 53.5627 46.7789 53.8195C46.7233 53.9167 46.5358 53.9375 46.4109 53.9931H24.5734L24.5664 54ZM1.61106 31.3936H44.0778C43.3835 30.3941 42.6405 29.3807 41.967 28.3188C41.7517 27.9787 41.5712 27.8398 41.1615 27.8398C28.1701 27.8537 15.1718 27.8468 2.18043 27.8468C1.99296 27.8468 1.81243 27.8468 1.61106 27.8468V31.3866V31.3936ZM15.8523 41.2774H1.62495V47.8573H15.8523V41.2774ZM15.8453 33.0733H1.62495V39.6393H15.8523V33.0733H15.8453ZM25.2816 41.1108C25.476 41.1177 25.6149 41.1316 25.7538 41.1316C31.0378 41.1316 36.3288 41.1316 41.6129 41.1316C42.0295 41.1316 42.453 41.09 42.8696 41.0206C43.8487 40.847 44.6541 40.382 44.9527 39.3964C45.2027 38.5913 45.3138 37.7375 45.4943 36.8699C45.2791 36.8422 45.1957 36.8213 45.1124 36.8213C40.5088 36.8213 35.9053 36.8213 31.3086 36.8491C30.0935 36.856 28.8992 37.092 27.7952 37.6473C26.3787 38.3553 25.5316 39.4797 25.2747 41.1247L25.2816 41.1108ZM18.8658 19.018C18.8658 19.6704 18.8658 20.3021 18.8658 20.9267C18.8658 21.7458 18.9561 21.836 19.7685 21.836C26.4134 21.836 33.0584 21.836 39.7034 21.836C39.8909 21.836 40.0714 21.836 40.238 21.836V19.018H18.8727H18.8658ZM45.2443 30.1442C45.2791 30.1234 45.3138 30.1026 45.3485 30.0748V10.4807C45.0985 10.7098 44.918 10.8625 44.7514 11.036C43.807 12.0355 43.1474 13.2085 42.703 14.4995C41.7101 17.373 41.6198 20.3159 42.0295 23.2936C42.3003 25.2787 42.9113 27.1596 44.1056 28.8046C44.4458 29.2766 44.8625 29.7 45.2443 30.1442ZM12.5124 20.2674H3.5622C3.60386 21.5722 3.71496 22.8285 4.21489 24.0085C4.65234 25.0427 5.3953 25.7853 6.51321 25.9866C7.31172 26.1254 8.15883 26.1532 8.96428 26.0699C10.3947 25.9311 11.3806 25.0913 11.7903 23.7308C12.1167 22.6342 12.2694 21.482 12.5194 20.2674H12.5124ZM47.008 27.8676V31.4144H52.3615V27.8676H47.008ZM31.6141 26.2434H36.6482V23.4463H31.6141V26.2434ZM38.3008 23.4185V26.2296H41.0157C40.8352 25.355 40.6685 24.5152 40.4741 23.6823C40.4463 23.5781 40.2797 23.4324 40.1755 23.4324C39.5645 23.4116 38.9535 23.4185 38.3008 23.4185ZM49.3758 19.0249H47.0149V21.836C47.6538 21.836 48.244 21.836 48.8411 21.836C49.1744 21.836 49.3758 21.6555 49.3758 21.3224C49.3827 20.5728 49.3758 19.8231 49.3758 19.0319V19.0249ZM8.16578 5.4347C6.83956 6.44807 6.8465 8.68997 8.17272 9.66864C9.46422 8.56504 9.45728 6.43419 8.16578 5.4347ZM12.5402 13.2362C11.2904 12.5977 9.04761 13.8193 8.999 15.4781C10.4571 16.082 12.5124 14.7771 12.5402 13.2362ZM3.70107 13.2501C3.90243 14.8743 5.81191 16.0751 7.24923 15.4851C7.27006 13.9997 5.08978 12.556 3.70107 13.2501Z" fill="#333CDF"/>
<path d="M54 53.3684C53.7848 53.7085 53.5209 53.9722 53.0696 53.9028C52.5766 53.8265 52.403 53.5211 52.403 53.0491C52.403 51.6609 52.403 50.2727 52.403 48.8846C52.403 47.656 52.41 46.4275 52.403 45.192C52.403 44.72 52.4447 44.2897 52.9654 44.1301C53.4932 43.9704 53.7778 44.3105 54 44.7131V53.3614V53.3684Z" fill="#333CDF"/>
<path d="M8.74195 45.3586C7.79068 45.3586 6.84636 45.3586 5.89509 45.3586C5.30489 45.3586 4.99243 45.074 4.99243 44.5674C4.99243 44.0676 5.31183 43.783 5.90204 43.7761C7.79763 43.7761 9.69322 43.7761 11.5888 43.7761C12.1998 43.7761 12.5401 44.0884 12.5192 44.6021C12.4984 45.0879 12.179 45.3517 11.5819 45.3586C10.6306 45.3586 9.68627 45.3586 8.73501 45.3586H8.74195Z" fill="#333CDF"/>
<path d="M8.76279 37.1337C7.79764 37.1337 6.83248 37.1337 5.86733 37.1337C5.31185 37.1337 5.00633 36.856 4.99939 36.3702C4.99244 35.8843 5.29102 35.565 5.83261 35.565C7.78375 35.5581 9.72795 35.5581 11.6791 35.565C12.2137 35.565 12.5331 35.8913 12.5262 36.3632C12.5262 36.8352 12.1999 37.1267 11.6583 37.1337C10.6931 37.1406 9.72795 37.1337 8.76279 37.1337Z" fill="#333CDF"/>
</g>
<defs>
<clipPath id="clip0_2022_55">
<rect width="54" height="54" fill="white"/>
</clipPath>
</defs>
</svg>
