<svg width="54" height="53" viewBox="0 0 54 53" fill="none" xmlns="http://www.w3.org/2000/svg">
<g clip-path="url(#clip0_11_139)">
<path d="M16.7197 51.2797C11.5807 51.2797 6.43721 51.2797 1.29819 51.2706H1.29372C0.617766 51.2706 0.246217 51.4481 0.00448608 51.8896V52.422C0.259647 52.8407 0.631196 53 1.32058 53H1.32953C10.3139 52.9863 19.2982 52.9863 28.287 52.9863H37.719H52.6839H52.7869C52.9615 52.9863 53.1226 52.9863 53.2793 52.9727C53.6777 52.9272 53.9776 52.6132 54.0045 52.199C54.0313 51.8122 53.7851 51.4481 53.4315 51.348C53.2256 51.2934 52.9883 51.2843 52.8048 51.2843C51.6275 51.2797 50.4457 51.2797 49.2684 51.2843H47.0659L47.0077 50.4287C46.9853 50.0874 46.963 49.7688 46.9406 49.4457C46.9271 49.2136 46.9137 48.9815 46.9003 48.7494C46.8779 48.2716 46.851 47.7755 46.7929 47.2977C46.7347 46.8107 46.3765 46.5195 45.8796 46.5559C45.4365 46.5877 45.141 46.9382 45.1455 47.4297C45.1455 47.7209 45.1679 48.0122 45.1858 48.3034C45.1947 48.44 45.2037 48.5765 45.2126 48.713L45.3514 51.2524H35.0555L35.1808 50.5971C35.1942 50.5197 35.2077 50.4515 35.2211 50.3878L36.282 46.0325C37.249 42.0641 38.2159 38.0912 39.1739 34.1228L39.2186 33.9271C39.4066 33.1307 39.617 32.2341 40.4407 31.6289L40.4899 31.547C41.43 30.1453 41.5061 28.739 40.7227 27.2418C40.5302 26.8777 40.3243 26.5182 40.1184 26.1632C40.0199 25.9948 39.9259 25.831 39.8319 25.6626L38.7844 23.8149L40.481 25.0665C42.6297 26.6547 43.8384 28.6571 44.0622 31.0282C44.2457 32.9304 44.3532 34.8691 44.4561 36.7441C44.5009 37.5769 44.5501 38.4143 44.6038 39.2471L44.6844 40.5305C44.7605 41.7501 44.8366 42.9698 44.9262 44.1894C44.9575 44.6399 45.3201 44.9858 45.7498 44.9858H45.7543C46.1706 44.9858 46.5332 44.6445 46.5825 44.2122C46.5959 44.0756 46.5869 43.9164 46.5735 43.7525L46.4705 42.1096C46.3362 39.9206 46.1975 37.7317 46.0587 35.5381C46.0274 35.0284 46.005 34.5187 45.9826 34.009C45.9334 32.8212 45.8796 31.597 45.6782 30.432C45.0425 26.682 42.9386 23.9651 39.4245 22.3541C37.9383 21.6715 36.9222 20.7021 36.1254 19.2003C35.0197 17.1251 33.8244 15.0499 32.6695 13.0429C32.2308 12.2829 31.7921 11.5229 31.3579 10.7584C31.1699 10.4261 30.9371 10.2123 30.6909 10.1485C30.5029 10.0985 30.3014 10.1349 30.0955 10.2578C29.4822 10.6264 29.7061 11.2499 29.8941 11.5912C30.0552 11.8824 30.2208 12.1737 30.3865 12.4604L32.6605 16.4607C34.8451 20.3062 37.0251 24.1517 39.2052 27.9972C39.5409 28.5934 39.6439 29.2442 39.4827 29.8267C39.335 30.3683 38.9724 30.8279 38.4576 31.1192C37.3519 31.7517 36.1567 31.3831 35.4897 30.209C31.3937 23.0049 27.2977 15.7962 23.2062 8.59212C22.5526 7.44074 22.8391 6.14373 23.8866 5.5066C24.3835 5.20169 24.9565 5.11067 25.4937 5.25175C26.0756 5.40193 26.5859 5.80696 26.9306 6.38948C27.0784 6.63978 27.2171 6.89463 27.3604 7.14493C27.535 7.45895 27.7095 7.77296 27.8976 8.07787C28.1975 8.57392 28.6362 8.71955 29.0793 8.46015C29.5001 8.2144 29.6076 7.71835 29.3435 7.22685C29.0435 6.66709 28.7212 6.10732 28.39 5.54301C27.4768 3.97294 25.8294 3.19929 24.1955 3.57701C22.4496 3.97749 21.3216 5.33822 21.1783 7.22685C21.1425 7.70925 20.9411 8.02781 20.5292 8.26446C19.5489 8.82877 18.5685 9.40674 17.5926 9.98015L16.0751 10.8676C15.9901 10.9176 15.9005 10.9541 15.7797 10.9996C15.7349 11.0178 15.6857 11.036 15.6275 11.0587L15.0097 11.3136V8.15979C15.0097 5.87978 15.0097 3.59977 15.0097 1.31976C15.0097 1.10586 15.0097 0.882868 14.9784 0.687179C14.9157 0.300351 14.6113 0.0272956 14.2174 0.00909194C13.9577 -9.90182e-06 13.7563 0.0637029 13.613 0.204781C13.4295 0.382267 13.3355 0.687179 13.331 1.07856C13.331 1.86132 13.3265 2.64862 13.3221 3.43593C13.3086 5.78876 13.2952 8.21895 13.3579 10.6036C13.3937 11.9507 12.9595 12.738 11.8135 13.4161C6.88486 16.3378 4.73615 22.4406 6.70133 27.9335C7.48472 30.118 8.67994 32.0885 10.2333 34.3776C11.6837 36.5166 13.7518 38.0093 16.3795 38.8148C19.7145 39.8387 22.9644 39.4428 26.0443 37.6452C27.3872 36.8624 28.7257 36.0751 30.0642 35.2924C31.5101 34.4459 32.9515 33.5949 34.3974 32.753C34.76 32.5436 35.0734 32.4753 35.3241 32.5573C35.7941 32.7029 36.2552 32.8895 36.7028 33.0624C36.8685 33.1307 37.0386 33.1944 37.2087 33.2627L37.5399 33.3901L37.4952 33.7451C37.4907 33.8179 37.4817 33.8952 37.4638 33.9726L36.5238 37.8227C35.5031 41.9959 34.487 46.1691 33.4842 50.3468C33.3186 51.0294 32.947 51.3025 32.2621 51.3025C27.0739 51.2934 21.8856 51.2934 16.6973 51.2934L16.7197 51.2797ZM31.8995 32.2432C31.1878 32.6619 30.476 33.0806 29.7642 33.4993C28.2199 34.4095 26.6755 35.3197 25.1221 36.2162C23.43 37.1946 21.617 37.6634 19.8488 37.6634C16.3527 37.6634 13.0087 35.8339 11.0211 32.489C10.2243 31.151 9.53495 29.9268 8.90376 28.739C6.41931 24.0516 7.87865 18.0717 12.2298 15.1272C12.3059 15.0772 12.382 15.0317 12.485 14.9725L13.3221 14.481V19.6418L12.8341 19.7601C12.7446 19.7828 12.6551 19.801 12.57 19.8238C12.1448 19.9376 11.8762 20.3016 11.9164 20.7112C11.9612 21.1481 12.2746 21.4621 12.6864 21.4712C13.6489 21.4985 14.6516 21.4985 15.6633 21.4712C16.1065 21.4621 16.4243 21.1481 16.4601 20.693C16.4914 20.2834 16.2184 19.933 15.7841 19.8147C15.708 19.7965 15.6319 19.7737 15.5379 19.751L15.0276 19.6236V16.0784C15.0276 15.4276 15.0187 14.7586 15.041 14.0942C15.05 13.7756 15.2156 13.366 15.5111 13.1886C17.0599 12.2602 18.6222 11.3454 20.1935 10.4261L21.7603 9.50686L33.9766 31.0236L31.8951 32.2432H31.8995Z" fill="#333CDF"/>
</g>
<defs>
<clipPath id="clip0_11_139">
<rect width="54" height="53" fill="white"/>
</clipPath>
</defs>
</svg>
